<svg xmlns="http://www.w3.org/2000/svg" xmlns:xlink="http://www.w3.org/1999/xlink" width="500" zoomAndPan="magnify" viewBox="0 0 375 374.999991" height="500" preserveAspectRatio="xMidYMid meet" version="1.0"><path stroke-linecap="round" transform="matrix(13.642877, 0, 0, 13.642877, 10.138313, 10.138308)" fill="none" stroke-linejoin="round" d="M 8.937984 22.608121 L 1.087905 24.911864 L 3.391935 17.062931 " stroke="#000000" stroke-width="1.9501" stroke-opacity="1" stroke-miterlimit="10"/><path fill="#5ccbd8" d="M 35.976562 298.792969 L 24.246094 338.78125 C 23.261719 342.179688 24.191406 345.835938 26.671875 348.332031 C 28.515625 350.160156 30.984375 351.15625 33.496094 351.15625 C 34.410156 351.15625 35.335938 351.019531 36.222656 350.761719 L 76.210938 339.027344 Z M 35.976562 298.792969 " fill-opacity="1" fill-rule="nonzero"/><path fill="#5ccbd8" d="M 80.738281 267.0625 L 102.527344 271.945312 L 105.664062 291.972656 L 255.65625 142.121094 L 230.742188 117.179688 Z M 80.738281 267.0625 " fill-opacity="1" fill-rule="nonzero"/><path fill="#5ccbd8" d="M 272.109375 158.257812 L 120.960938 309.273438 L 140.375 328.699219 L 292.121094 178.273438 Z M 272.109375 158.257812 " fill-opacity="1" fill-rule="nonzero"/><path fill="#5ccbd8" d="M 215.941406 102.078125 L 198.054688 84.21875 L 46.320312 234.617188 L 64.792969 253.089844 Z M 215.941406 102.078125 " fill-opacity="1" fill-rule="nonzero"/><path fill="#5ccbd8" d="M 305.726562 163.335938 L 211.65625 69.265625 L 233.1875 49.089844 L 327.238281 143.15625 Z M 305.726562 163.335938 " fill-opacity="1" fill-rule="nonzero"/><path fill="#5ccbd8" d="M 338.398438 126.757812 L 248.261719 36.605469 L 262.09375 22.621094 C 274.402344 10.316406 294.46875 10.410156 306.910156 22.867188 L 352 67.941406 C 364.445312 80.398438 364.554688 100.46875 352.246094 112.773438 Z M 338.398438 126.757812 " fill-opacity="1" fill-rule="nonzero"/></svg>