<svg xmlns="http://www.w3.org/2000/svg" xmlns:xlink="http://www.w3.org/1999/xlink" width="500" zoomAndPan="magnify" viewBox="0 0 375 374.999991" height="500" preserveAspectRatio="xMidYMid meet" version="1.0"><path fill="#ffffff" d="M 321.265625 61.371094 C 317.550781 51.109375 308.964844 43.578125 298.320312 41.207031 C 287.675781 38.839844 276.707031 42.027344 268.996094 49.753906 L 224.441406 94.308594 C 217.382812 101.367188 214.089844 111.105469 215.433594 121.007812 C 216.765625 130.910156 222.519531 139.414062 231.203125 144.347656 L 242.082031 150.523438 C 244.769531 152.046875 246.550781 154.671875 246.988281 157.734375 C 247.421875 160.796875 246.421875 163.820312 244.269531 166.023438 L 158.425781 253.878906 C 156.234375 256.121094 153.199219 257.171875 150.085938 256.773438 C 146.972656 256.375 144.308594 254.582031 142.757812 251.855469 L 136.777344 241.324219 C 131.84375 232.640625 123.335938 226.886719 113.433594 225.554688 C 103.53125 224.222656 93.808594 227.5 86.738281 234.558594 L 42.179688 279.117188 C 34.480469 286.839844 31.292969 297.808594 33.648438 308.453125 C 36.019531 319.097656 43.550781 327.679688 53.800781 331.398438 L 93.539062 345.808594 C 104.8125 349.894531 116.535156 351.882812 128.167969 351.882812 C 155.019531 351.882812 181.40625 341.300781 200.855469 321.597656 L 312.679688 208.335938 C 326.246094 194.605469 335.597656 177.375 339.722656 158.503906 C 343.847656 139.648438 342.554688 120.085938 335.972656 101.933594 Z M 308.992188 204.683594 L 197.164062 317.945312 C 170.699219 344.742188 130.726562 353.761719 95.320312 340.914062 L 55.582031 326.5 C 47.011719 323.386719 40.707031 316.214844 38.734375 307.3125 C 36.761719 298.40625 39.425781 289.246094 45.871094 282.792969 L 90.425781 238.234375 C 95.460938 233.199219 102.121094 230.460938 109.117188 230.460938 C 110.320312 230.460938 111.527344 230.535156 112.742188 230.703125 C 121.019531 231.816406 128.128906 236.621094 132.253906 243.882812 L 138.234375 254.414062 C 140.605469 258.578125 144.679688 261.308594 149.417969 261.921875 C 154.160156 262.535156 158.808594 260.921875 162.152344 257.503906 L 247.984375 169.648438 C 251.277344 166.277344 252.789062 161.664062 252.136719 156.988281 C 251.484375 152.328125 248.753906 148.304688 244.65625 145.972656 L 233.777344 139.796875 C 226.515625 135.671875 221.710938 128.5625 220.597656 120.285156 C 219.480469 112.011719 222.222656 103.875 228.128906 97.96875 L 272.683594 53.414062 C 279.128906 46.972656 288.300781 44.292969 297.207031 46.277344 C 306.109375 48.25 313.28125 54.554688 316.394531 63.125 L 331.117188 103.695312 C 343.757812 138.628906 335.074219 178.265625 308.992188 204.683594 Z M 174.953125 170.019531 C 175.3125 170.019531 175.671875 169.941406 176.015625 169.789062 C 177.003906 169.355469 177.617188 168.355469 177.554688 167.277344 L 171.992188 59.335938 C 171.941406 58.3125 171.289062 57.414062 170.328125 57.042969 C 169.367188 56.671875 168.277344 56.902344 167.546875 57.632812 L 146.71875 78.460938 L 92.964844 24.707031 C 92.476562 24.207031 91.808594 23.9375 91.117188 23.9375 C 90.425781 23.9375 89.761719 24.207031 89.273438 24.707031 L 60.757812 53.222656 C 59.746094 54.234375 59.746094 55.886719 60.757812 56.902344 L 173.109375 169.25 C 173.605469 169.761719 174.273438 170.019531 174.953125 170.019531 Z M 66.277344 55.070312 L 91.117188 30.230469 L 144.886719 83.996094 C 145.898438 85.007812 147.550781 85.007812 148.5625 83.996094 L 167.085938 65.472656 L 171.992188 160.808594 Z M 45.152344 69.070312 C 44.167969 69.507812 43.550781 70.503906 43.617188 71.582031 L 49.175781 179.523438 C 49.226562 180.550781 49.882812 181.445312 50.839844 181.816406 C 51.800781 182.1875 52.890625 181.957031 53.621094 181.226562 L 74.453125 160.398438 L 128.21875 214.167969 C 128.707031 214.652344 129.375 214.933594 130.066406 214.933594 C 130.757812 214.933594 131.421875 214.664062 131.910156 214.167969 L 160.4375 185.636719 C 161.449219 184.625 161.449219 182.972656 160.4375 181.960938 L 48.0625 69.609375 C 47.292969 68.839844 46.140625 68.621094 45.152344 69.070312 Z M 154.890625 183.800781 L 130.050781 208.640625 L 76.28125 154.875 C 75.796875 154.386719 75.128906 154.105469 74.4375 154.105469 C 73.746094 154.105469 73.078125 154.375 72.59375 154.875 L 54.070312 173.398438 L 49.164062 78.0625 Z M 154.890625 183.800781 " fill-opacity="1" fill-rule="nonzero"/></svg>