<svg xmlns="http://www.w3.org/2000/svg" xmlns:xlink="http://www.w3.org/1999/xlink" width="500" zoomAndPan="magnify" viewBox="0 0 375 374.999991" height="500" preserveAspectRatio="xMidYMid meet" version="1.0"><path fill="#ffffff" d="M 152.238281 108.582031 C 153.910156 108.59375 155.578125 108.527344 157.246094 108.378906 C 158.910156 108.234375 160.566406 108.007812 162.210938 107.703125 C 163.855469 107.394531 165.480469 107.011719 167.085938 106.550781 C 168.695312 106.089844 170.277344 105.554688 171.832031 104.941406 C 173.386719 104.328125 174.910156 103.640625 176.398438 102.882812 C 177.890625 102.121094 179.339844 101.292969 180.75 100.394531 C 182.160156 99.5 183.527344 98.535156 184.84375 97.507812 C 186.164062 96.476562 187.429688 95.386719 188.640625 94.238281 C 189.855469 93.085938 191.011719 91.882812 192.109375 90.621094 C 193.207031 89.359375 194.242188 88.046875 195.214844 86.6875 C 196.1875 85.328125 197.09375 83.925781 197.929688 82.476562 C 198.769531 81.03125 199.535156 79.546875 200.230469 78.023438 C 200.925781 76.503906 201.546875 74.953125 202.09375 73.375 C 202.640625 71.792969 203.109375 70.191406 203.503906 68.566406 C 203.898438 66.941406 204.210938 65.300781 204.449219 63.644531 C 204.683594 61.988281 204.839844 60.324219 204.917969 58.65625 C 204.980469 56.941406 204.957031 55.226562 204.847656 53.511719 C 204.738281 51.796875 204.546875 50.09375 204.269531 48.398438 C 203.992188 46.703125 203.632812 45.027344 203.1875 43.367188 C 202.742188 41.710938 202.21875 40.078125 201.613281 38.472656 C 201.007812 36.863281 200.320312 35.292969 199.558594 33.753906 C 198.796875 32.214844 197.960938 30.71875 197.046875 29.261719 C 196.136719 27.808594 195.15625 26.402344 194.105469 25.042969 C 193.054688 23.6875 191.9375 22.382812 190.757812 21.136719 C 189.578125 19.890625 188.335938 18.703125 187.039062 17.582031 C 185.738281 16.457031 184.390625 15.402344 182.984375 14.410156 C 181.582031 13.421875 180.132812 12.503906 178.640625 11.660156 C 177.144531 10.816406 175.613281 10.046875 174.039062 9.351562 C 172.46875 8.660156 170.867188 8.046875 169.234375 7.511719 C 167.605469 6.976562 165.949219 6.527344 164.273438 6.15625 C 162.597656 5.789062 160.90625 5.503906 159.199219 5.300781 C 157.496094 5.101562 155.785156 4.984375 154.066406 4.953125 C 152.351562 4.921875 150.636719 4.976562 148.925781 5.113281 C 147.210938 5.253906 145.511719 5.476562 143.824219 5.785156 C 142.132812 6.09375 140.464844 6.484375 138.8125 6.957031 C 137.164062 7.433594 135.539062 7.988281 133.945312 8.625 C 132.351562 9.257812 130.789062 9.972656 129.265625 10.761719 C 127.742188 11.550781 126.261719 12.417969 124.820312 13.355469 C 123.382812 14.292969 121.996094 15.296875 120.65625 16.375 C 119.316406 17.449219 118.035156 18.589844 116.8125 19.792969 C 115.585938 20.996094 114.421875 22.257812 113.324219 23.574219 C 112.222656 24.894531 111.191406 26.261719 110.230469 27.683594 C 109.265625 29.105469 108.375 30.570312 107.554688 32.082031 C 106.738281 33.589844 105.996094 35.136719 105.332031 36.71875 C 104.667969 38.304688 104.085938 39.914062 103.582031 41.558594 C 103.074219 43.199219 102.65625 44.859375 102.316406 46.542969 C 101.976562 48.226562 101.722656 49.921875 101.550781 51.632812 C 101.382812 53.339844 101.296875 55.054688 101.296875 56.769531 C 101.296875 58.449219 101.378906 60.125 101.542969 61.792969 C 101.707031 63.464844 101.953125 65.125 102.277344 66.769531 C 102.601562 68.417969 103.003906 70.042969 103.488281 71.652344 C 103.96875 73.257812 104.53125 74.839844 105.167969 76.394531 C 105.800781 77.945312 106.511719 79.464844 107.296875 80.949219 C 108.082031 82.433594 108.933594 83.875 109.859375 85.277344 C 110.78125 86.679688 111.769531 88.03125 112.828125 89.335938 C 113.882812 90.644531 114.996094 91.894531 116.175781 93.089844 C 117.351562 94.289062 118.582031 95.425781 119.871094 96.5 C 121.15625 97.578125 122.496094 98.589844 123.878906 99.539062 C 125.265625 100.484375 126.695312 101.363281 128.164062 102.171875 C 129.636719 102.980469 131.140625 103.71875 132.683594 104.378906 C 134.226562 105.042969 135.796875 105.628906 137.398438 106.136719 C 138.996094 106.648438 140.617188 107.078125 142.257812 107.433594 C 143.898438 107.785156 145.550781 108.054688 147.21875 108.25 C 148.886719 108.441406 150.558594 108.550781 152.238281 108.582031 Z M 153.953125 22.382812 C 155.078125 22.410156 156.195312 22.488281 157.3125 22.625 C 158.429688 22.757812 159.539062 22.949219 160.636719 23.191406 C 161.734375 23.433594 162.816406 23.730469 163.886719 24.082031 C 164.957031 24.429688 166.003906 24.832031 167.035156 25.28125 C 168.066406 25.734375 169.070312 26.234375 170.050781 26.785156 C 171.03125 27.335938 171.984375 27.933594 172.90625 28.574219 C 173.828125 29.21875 174.71875 29.90625 175.574219 30.636719 C 176.429688 31.367188 177.246094 32.136719 178.027344 32.945312 C 178.804688 33.757812 179.546875 34.601562 180.242188 35.484375 C 180.941406 36.367188 181.59375 37.28125 182.199219 38.226562 C 182.808594 39.175781 183.367188 40.148438 183.882812 41.148438 C 184.394531 42.148438 184.855469 43.171875 185.269531 44.21875 C 185.683594 45.265625 186.042969 46.328125 186.351562 47.410156 C 186.660156 48.492188 186.914062 49.585938 187.117188 50.691406 C 187.320312 51.800781 187.464844 52.914062 187.558594 54.035156 C 187.652344 55.15625 187.691406 56.277344 187.671875 57.402344 C 187.65625 58.527344 187.585938 59.648438 187.457031 60.765625 C 187.332031 61.882812 187.148438 62.992188 186.914062 64.089844 C 186.679688 65.191406 186.390625 66.277344 186.050781 67.347656 C 185.710938 68.421875 185.316406 69.472656 184.875 70.507812 C 184.429688 71.539062 183.9375 72.550781 183.394531 73.535156 C 182.851562 74.519531 182.261719 75.476562 181.625 76.402344 C 180.988281 77.332031 180.308594 78.222656 179.585938 79.085938 C 178.859375 79.945312 178.097656 80.769531 177.292969 81.554688 C 176.488281 82.34375 175.648438 83.085938 174.769531 83.792969 C 173.894531 84.496094 172.984375 85.15625 172.042969 85.769531 C 171.101562 86.386719 170.132812 86.953125 169.136719 87.472656 C 168.136719 87.992188 167.117188 88.464844 166.074219 88.886719 C 165.03125 89.304688 163.96875 89.675781 162.890625 89.992188 C 161.8125 90.308594 160.71875 90.570312 159.617188 90.78125 C 158.511719 90.992188 157.398438 91.148438 156.277344 91.25 C 155.15625 91.351562 154.035156 91.394531 152.910156 91.386719 C 151.785156 91.378906 150.664062 91.316406 149.546875 91.199219 C 148.425781 91.082031 147.316406 90.90625 146.214844 90.679688 C 145.113281 90.453125 144.027344 90.175781 142.953125 89.839844 C 141.878906 89.507812 140.824219 89.125 139.785156 88.6875 C 138.75 88.25 137.734375 87.765625 136.746094 87.230469 C 135.757812 86.695312 134.796875 86.113281 133.863281 85.484375 C 132.933594 84.855469 132.035156 84.179688 131.167969 83.464844 C 130.300781 82.746094 129.472656 81.988281 128.679688 81.191406 C 127.886719 80.394531 127.136719 79.558594 126.425781 78.6875 C 125.714844 77.816406 125.046875 76.910156 124.425781 75.972656 C 123.800781 75.035156 123.226562 74.070312 122.699219 73.078125 C 122.171875 72.085938 121.695312 71.070312 121.265625 70.03125 C 120.835938 68.988281 120.460938 67.929688 120.132812 66.855469 C 119.808594 65.777344 119.539062 64.6875 119.320312 63.585938 C 119.101562 62.480469 118.9375 61.371094 118.828125 60.25 C 118.71875 59.132812 118.664062 58.007812 118.660156 56.882812 C 118.65625 55.738281 118.710938 54.59375 118.824219 53.449219 C 118.933594 52.308594 119.101562 51.171875 119.324219 50.046875 C 119.550781 48.921875 119.828125 47.8125 120.164062 46.714844 C 120.5 45.617188 120.890625 44.539062 121.332031 43.480469 C 121.777344 42.421875 122.273438 41.386719 122.820312 40.378906 C 123.363281 39.371094 123.960938 38.390625 124.605469 37.441406 C 125.25 36.492188 125.941406 35.578125 126.679688 34.695312 C 127.414062 33.816406 128.191406 32.976562 129.011719 32.171875 C 129.832031 31.371094 130.691406 30.613281 131.589844 29.894531 C 132.484375 29.179688 133.414062 28.507812 134.378906 27.886719 C 135.34375 27.261719 136.335938 26.6875 137.355469 26.164062 C 138.378906 25.640625 139.421875 25.167969 140.492188 24.75 C 141.558594 24.332031 142.644531 23.964844 143.75 23.65625 C 144.855469 23.34375 145.972656 23.089844 147.101562 22.890625 C 148.234375 22.691406 149.371094 22.550781 150.515625 22.464844 C 151.660156 22.378906 152.804688 22.351562 153.953125 22.382812 Z M 343.882812 123.375 C 343.507812 122.785156 343.0625 122.253906 342.550781 121.773438 C 342.039062 121.296875 341.476562 120.890625 340.863281 120.558594 C 340.25 120.222656 339.601562 119.96875 338.921875 119.800781 C 338.246094 119.628906 337.558594 119.542969 336.855469 119.546875 L 288.589844 119.546875 C 288.027344 119.546875 287.46875 119.601562 286.917969 119.710938 C 286.367188 119.820312 285.828125 119.984375 285.308594 120.199219 C 284.789062 120.414062 284.296875 120.679688 283.828125 120.992188 C 283.359375 121.304688 282.929688 121.660156 282.53125 122.058594 C 282.132812 122.457031 281.777344 122.886719 281.464844 123.355469 C 281.152344 123.824219 280.886719 124.316406 280.671875 124.835938 C 280.457031 125.355469 280.296875 125.894531 280.183594 126.445312 C 280.074219 126.996094 280.019531 127.554688 280.019531 128.117188 C 280.019531 128.679688 280.074219 129.234375 280.183594 129.789062 C 280.296875 130.339844 280.457031 130.875 280.671875 131.394531 C 280.886719 131.914062 281.152344 132.410156 281.464844 132.875 C 281.777344 133.34375 282.132812 133.777344 282.53125 134.175781 C 282.929688 134.574219 283.359375 134.925781 283.828125 135.242188 C 284.296875 135.554688 284.789062 135.816406 285.308594 136.03125 C 285.828125 136.246094 286.367188 136.410156 286.917969 136.519531 C 287.46875 136.628906 288.027344 136.683594 288.589844 136.683594 L 321.148438 136.683594 C 293.902344 163.929688 266.691406 191.160156 239.519531 218.367188 L 239.519531 194.492188 L 239.40625 194.605469 L 239.40625 177.414062 C 239.390625 175.734375 239.296875 174.058594 239.117188 172.390625 C 238.941406 170.71875 238.683594 169.0625 238.34375 167.417969 C 238.007812 165.773438 237.589844 164.148438 237.09375 162.542969 C 236.597656 160.941406 236.027344 159.363281 235.378906 157.816406 C 234.730469 156.265625 234.007812 154.753906 233.210938 153.273438 C 232.414062 151.792969 231.550781 150.359375 230.617188 148.964844 C 229.679688 147.566406 228.679688 146.222656 227.613281 144.925781 C 226.550781 143.625 225.425781 142.382812 224.238281 141.195312 C 223.050781 140.003906 221.8125 138.878906 220.515625 137.808594 C 219.21875 136.742188 217.875 135.738281 216.484375 134.800781 C 215.089844 133.863281 213.65625 132.992188 212.179688 132.195312 C 210.703125 131.394531 209.191406 130.671875 207.644531 130.019531 C 206.09375 129.367188 204.519531 128.789062 202.917969 128.292969 C 201.3125 127.792969 199.691406 127.371094 198.046875 127.03125 C 196.402344 126.6875 194.746094 126.425781 193.078125 126.246094 C 191.40625 126.0625 189.734375 125.964844 188.054688 125.945312 C 164.632812 125.886719 141.214844 125.90625 117.792969 126.003906 C 116.332031 126.015625 114.871094 126.089844 113.414062 126.226562 C 111.957031 126.367188 110.507812 126.566406 109.070312 126.828125 C 107.628906 127.089844 106.203125 127.414062 104.792969 127.796875 C 103.382812 128.179688 101.988281 128.625 100.613281 129.128906 C 99.242188 129.632812 97.890625 130.191406 96.566406 130.8125 C 95.242188 131.433594 93.945312 132.105469 92.675781 132.835938 C 91.410156 133.566406 90.175781 134.351562 88.972656 135.1875 C 87.773438 136.023438 86.609375 136.910156 85.488281 137.847656 C 84.363281 138.785156 83.28125 139.765625 82.238281 140.796875 C 81.199219 141.824219 80.207031 142.894531 79.257812 144.011719 C 78.308594 145.125 77.410156 146.277344 76.5625 147.46875 C 75.710938 148.660156 74.914062 149.886719 74.171875 151.144531 C 73.425781 152.40625 72.738281 153.695312 72.101562 155.011719 C 71.46875 156.332031 70.894531 157.675781 70.375 159.042969 C 69.855469 160.410156 69.398438 161.800781 69 163.207031 C 68.597656 164.613281 68.261719 166.035156 67.984375 167.472656 C 67.066406 175.445312 66.664062 183.441406 66.785156 191.464844 C 66.726562 192.320312 66.785156 193.234375 66.785156 194.433594 C 66.636719 194.347656 66.484375 194.269531 66.328125 194.207031 L 66.328125 223.96875 C 66.605469 225.421875 66.738281 226.886719 66.726562 228.367188 C 66.785156 233.390625 66.785156 278.574219 66.785156 297.082031 L 66.328125 297.082031 L 66.328125 313.476562 L 29.769531 350.035156 C 29.371094 350.433594 29.015625 350.871094 28.707031 351.339844 C 28.394531 351.808594 28.132812 352.304688 27.917969 352.824219 C 27.703125 353.34375 27.542969 353.882812 27.433594 354.433594 C 27.324219 354.988281 27.273438 355.546875 27.273438 356.109375 C 27.273438 356.671875 27.332031 357.230469 27.441406 357.78125 C 27.554688 358.335938 27.71875 358.871094 27.933594 359.390625 C 28.152344 359.910156 28.417969 360.40625 28.730469 360.871094 C 29.046875 361.339844 29.402344 361.773438 29.800781 362.167969 C 30.199219 362.566406 30.632812 362.921875 31.105469 363.234375 C 31.574219 363.546875 32.066406 363.808594 32.589844 364.023438 C 33.109375 364.238281 33.648438 364.398438 34.199219 364.507812 C 34.753906 364.617188 35.308594 364.671875 35.875 364.667969 C 36.4375 364.667969 36.996094 364.613281 37.546875 364.5 C 38.097656 364.390625 38.636719 364.226562 39.15625 364.011719 C 39.675781 363.792969 40.167969 363.527344 40.636719 363.214844 C 41.105469 362.902344 41.539062 362.542969 41.9375 362.144531 L 89.859375 314.21875 L 106.996094 297.082031 L 154.179688 249.902344 L 183.425781 279.148438 C 184.15625 279.867188 184.992188 280.417969 185.941406 280.804688 C 186.089844 281.09375 186.257812 281.375 186.441406 281.644531 C 186.625 281.917969 186.820312 282.175781 187.035156 282.421875 C 187.25 282.671875 187.476562 282.90625 187.71875 283.125 C 187.960938 283.347656 188.210938 283.554688 188.476562 283.742188 C 188.742188 283.933594 189.019531 284.109375 189.304688 284.269531 C 189.589844 284.425781 189.886719 284.566406 190.1875 284.691406 C 190.492188 284.816406 190.800781 284.921875 191.113281 285.007812 C 191.429688 285.097656 191.75 285.164062 192.074219 285.214844 C 192.394531 285.265625 192.71875 285.296875 193.046875 285.308594 C 193.375 285.320312 193.699219 285.3125 194.027344 285.285156 C 194.351562 285.257812 194.675781 285.210938 194.996094 285.148438 C 195.316406 285.082031 195.632812 285 195.945312 284.898438 C 196.253906 284.796875 196.558594 284.675781 196.855469 284.539062 C 197.152344 284.398438 197.4375 284.246094 197.71875 284.074219 C 197.996094 283.902344 198.261719 283.714844 198.519531 283.511719 C 198.777344 283.308594 199.019531 283.089844 199.25 282.859375 L 222.042969 260.066406 C 227.8125 254.242188 233.597656 248.453125 239.40625 242.703125 C 269.871094 212.199219 300.335938 181.734375 330.800781 151.308594 L 330.800781 183.867188 C 330.800781 184.429688 330.855469 184.988281 330.96875 185.539062 C 331.078125 186.089844 331.238281 186.625 331.453125 187.144531 C 331.667969 187.664062 331.933594 188.160156 332.246094 188.628906 C 332.558594 189.09375 332.914062 189.527344 333.3125 189.925781 C 333.710938 190.324219 334.140625 190.679688 334.609375 190.992188 C 335.078125 191.304688 335.570312 191.566406 336.089844 191.785156 C 336.613281 192 337.148438 192.160156 337.699219 192.269531 C 338.25 192.378906 338.808594 192.433594 339.371094 192.433594 C 339.933594 192.433594 340.492188 192.378906 341.042969 192.269531 C 341.59375 192.160156 342.128906 192 342.648438 191.785156 C 343.167969 191.566406 343.664062 191.304688 344.132812 190.992188 C 344.597656 190.679688 345.03125 190.324219 345.429688 189.925781 C 345.828125 189.527344 346.183594 189.09375 346.496094 188.628906 C 346.808594 188.160156 347.070312 187.664062 347.285156 187.144531 C 347.5 186.625 347.664062 186.089844 347.773438 185.539062 C 347.882812 184.988281 347.9375 184.429688 347.9375 183.867188 L 347.9375 130.628906 C 347.921875 129.90625 347.820312 129.191406 347.628906 128.492188 C 347.441406 127.792969 347.167969 127.128906 346.816406 126.496094 C 346.460938 125.863281 346.035156 125.285156 345.539062 124.753906 C 345.042969 124.226562 344.492188 123.765625 343.882812 123.375 Z M 193.195312 264.695312 C 182.96875 254.46875 172.765625 244.246094 162.578125 234.019531 C 162.449219 233.695312 162.300781 233.378906 162.132812 233.070312 C 161.964844 232.765625 161.777344 232.46875 161.574219 232.183594 C 161.371094 231.902344 161.148438 231.628906 160.910156 231.375 C 160.671875 231.117188 160.421875 230.875 160.152344 230.652344 C 159.886719 230.425781 159.605469 230.214844 159.3125 230.027344 C 159.019531 229.835938 158.714844 229.664062 158.398438 229.507812 C 158.085938 229.355469 157.761719 229.222656 157.429688 229.109375 C 157.101562 228.996094 156.761719 228.902344 156.421875 228.832031 C 156.078125 228.757812 155.734375 228.707031 155.382812 228.679688 C 155.035156 228.648438 154.6875 228.644531 154.335938 228.65625 C 153.988281 228.671875 153.640625 228.707031 153.292969 228.761719 C 152.949219 228.820312 152.609375 228.898438 152.273438 228.996094 C 151.9375 229.09375 151.609375 229.214844 151.289062 229.355469 C 150.964844 229.492188 150.65625 229.652344 150.355469 229.832031 C 150.050781 230.007812 149.761719 230.203125 149.484375 230.417969 C 149.207031 230.632812 148.945312 230.859375 148.695312 231.105469 L 84.035156 295.769531 C 84.035156 268.179688 83.976562 198.320312 84.035156 178.039062 C 84.023438 176.894531 84.066406 175.75 84.167969 174.609375 C 84.269531 173.46875 84.425781 172.335938 84.640625 171.207031 C 84.855469 170.082031 85.125 168.96875 85.449219 167.871094 C 85.773438 166.773438 86.152344 165.691406 86.585938 164.632812 C 87.019531 163.570312 87.503906 162.535156 88.039062 161.519531 C 88.578125 160.507812 89.164062 159.523438 89.796875 158.570312 C 90.429688 157.617188 91.113281 156.695312 91.839844 155.808594 C 92.566406 154.921875 93.332031 154.074219 94.144531 153.265625 C 94.957031 152.457031 95.804688 151.6875 96.691406 150.964844 C 97.578125 150.238281 98.5 149.558594 99.457031 148.925781 C 100.410156 148.292969 101.394531 147.710938 102.410156 147.175781 C 103.421875 146.640625 104.460938 146.15625 105.523438 145.726562 C 106.585938 145.292969 107.664062 144.917969 108.765625 144.59375 C 109.863281 144.269531 110.976562 144.003906 112.101562 143.789062 C 113.230469 143.578125 114.363281 143.421875 115.503906 143.324219 C 116.648438 143.222656 117.789062 143.179688 118.9375 143.195312 C 140.261719 143.140625 161.605469 143.140625 182.96875 143.195312 C 187.035156 143.082031 191.070312 143.367188 195.078125 144.054688 C 196.039062 144.261719 196.992188 144.511719 197.929688 144.800781 C 198.871094 145.089844 199.792969 145.421875 200.707031 145.792969 C 201.617188 146.160156 202.507812 146.570312 203.386719 147.015625 C 204.261719 147.464844 205.117188 147.949219 205.949219 148.46875 C 206.785156 148.988281 207.59375 149.542969 208.378906 150.132812 C 209.167969 150.726562 209.925781 151.347656 210.65625 152.003906 C 211.390625 152.660156 212.09375 153.347656 212.765625 154.0625 C 213.4375 154.777344 214.082031 155.523438 214.691406 156.296875 C 215.300781 157.066406 215.875 157.863281 216.414062 158.683594 C 216.953125 159.503906 217.457031 160.347656 217.925781 161.214844 C 218.394531 162.078125 218.824219 162.960938 219.214844 163.863281 C 219.609375 164.765625 219.960938 165.683594 220.273438 166.613281 C 220.585938 167.546875 220.855469 168.488281 221.089844 169.445312 C 221.320312 170.402344 221.507812 171.363281 221.65625 172.335938 C 221.804688 173.308594 221.914062 174.285156 221.976562 175.265625 C 222.039062 176.246094 222.0625 177.230469 222.042969 178.210938 C 222.097656 188.4375 222.042969 211.855469 222.042969 235.847656 Z M 193.195312 264.695312 " fill-opacity="1" fill-rule="nonzero"/></svg>