<svg xmlns="http://www.w3.org/2000/svg" viewBox="0 0 24 24" fill="none" stroke="currentColor" stroke-width="1.8" stroke-linecap="round" stroke-linejoin="round">
  <path d="M7.5 9a4.5 4.5 0 019 0c0 4.2 1.1 6 1.9 6.9a.7.7 0 01-.5 1.1H6.1a.7.7 0 01-.5-1.1C6.4 15 7.5 13.2 7.5 9z" fill="currentColor" stroke="none" />
  <path d="M7.5 9a4.5 4.5 0 019 0c0 4.2 1.1 6 1.9 6.9a.7.7 0 01-.5 1.1H6.1a.7.7 0 01-.5-1.1C6.4 15 7.5 13.2 7.5 9z" />
  <path d="M10 18.5a2 2 0 004 0" />
  <circle cx="15.8" cy="6.2" r="1.4" fill="currentColor" stroke="none" />
</svg>
