<svg xmlns="http://www.w3.org/2000/svg" xmlns:xlink="http://www.w3.org/1999/xlink" width="500" zoomAndPan="magnify" viewBox="0 0 375 374.999991" height="500" preserveAspectRatio="xMidYMid meet" version="1.0"><path fill="#ffffff" d="M 206.148438 352.128906 C 209.953125 348.328125 212.628906 343.394531 213.605469 337.898438 L 160.867188 337.898438 C 164.605469 358.851562 190.648438 367.632812 206.148438 352.128906 Z M 216.273438 289.574219 L 158.195312 289.574219 C 141.09375 289.574219 132.085938 310.457031 144.441406 322.804688 C 147.972656 326.339844 152.84375 328.53125 158.195312 328.53125 L 216.273438 328.53125 C 233.375 328.53125 242.382812 307.652344 230.027344 295.300781 C 226.496094 291.769531 221.625 289.574219 216.273438 289.574219 Z M 233.222656 285.746094 C 249.113281 249.761719 279.625 221.273438 279.625 178.457031 C 279.625 96.398438 179.953125 55.082031 121.90625 113.128906 C 105.1875 129.847656 94.847656 152.945312 94.847656 178.457031 C 94.847656 221.273438 125.359375 249.757812 141.25 285.746094 C 146.011719 282.269531 151.878906 280.207031 158.199219 280.207031 L 216.277344 280.207031 C 222.59375 280.207031 228.457031 282.269531 233.222656 285.746094 Z M 166.964844 313.738281 C 160.800781 313.738281 160.800781 304.371094 166.964844 304.371094 L 207.507812 304.371094 C 213.671875 304.371094 213.671875 313.738281 207.507812 313.738281 Z M 228.117188 137.578125 C 250.691406 160.15625 250.691406 196.757812 228.117188 219.335938 C 191.796875 255.65625 129.429688 229.804688 129.429688 178.453125 C 129.425781 127.105469 191.796875 101.257812 228.117188 137.578125 Z M 187.238281 111.28125 C 246.882812 111.28125 276.953125 183.734375 234.734375 225.953125 C 192.515625 268.167969 120.066406 238.097656 120.066406 178.453125 C 120.066406 141.359375 150.140625 111.28125 187.238281 111.28125 Z M 134.664062 292.417969 C 134.304688 292.925781 133.960938 293.441406 133.636719 293.96875 C 126.074219 290.453125 117.382812 283.1875 108.84375 291.730469 L 94.242188 306.332031 L 91.328125 307.550781 L 91.328125 307.53125 C 90.335938 307.53125 89.347656 307.1875 88.574219 306.496094 L 59.355469 277.273438 L 59.347656 277.28125 L 58.140625 274.363281 L 58.160156 274.363281 C 58.160156 273.371094 58.503906 272.382812 59.191406 271.609375 L 73.957031 256.851562 C 78.246094 252.5625 79.152344 246.023438 76.175781 240.726562 C 71.253906 231.960938 67.386719 222.671875 64.660156 212.964844 C 63.007812 207.09375 57.78125 203.125 51.691406 203.125 L 31.058594 203.125 C 28.761719 203.125 26.945312 201.257812 26.945312 199.011719 L 26.945312 157.90625 C 26.945312 155.601562 28.824219 153.792969 31.058594 153.792969 L 51.691406 153.792969 C 64.566406 153.792969 65.207031 140.300781 69.582031 129.746094 C 74.574219 117.710938 82.761719 109.933594 74.238281 100.371094 L 59.359375 85.464844 L 58.140625 82.554688 L 58.160156 82.554688 C 58.160156 81.558594 58.503906 80.574219 59.195312 79.800781 L 88.417969 50.585938 L 91.328125 49.367188 L 91.328125 49.386719 C 92.320312 49.386719 93.308594 49.730469 94.085938 50.421875 L 108.84375 65.1875 C 113.132812 69.476562 119.667969 70.382812 124.96875 67.40625 C 133.738281 62.480469 143.015625 58.617188 152.730469 55.886719 C 158.601562 54.238281 162.570312 49.011719 162.570312 42.921875 L 162.570312 22.289062 C 162.570312 20.027344 164.425781 18.175781 166.683594 18.175781 L 207.78125 18.175781 C 210.039062 18.175781 211.894531 20.027344 211.894531 22.289062 L 211.894531 42.921875 C 211.894531 55.796875 225.386719 56.4375 235.945312 60.816406 C 245.28125 64.6875 251.34375 69.9375 257.933594 69.027344 L 257.933594 69.015625 C 260.777344 68.621094 263.480469 67.324219 265.621094 65.183594 L 280.226562 50.582031 L 283.136719 49.363281 L 283.136719 49.382812 C 284.132812 49.382812 285.117188 49.726562 285.890625 50.417969 L 315.105469 79.640625 L 316.324219 82.550781 L 316.304688 82.550781 C 316.304688 83.542969 315.960938 84.527344 315.269531 85.304688 L 300.503906 100.066406 L 300.511719 100.074219 C 296.324219 103.839844 295.304688 110.882812 298.289062 116.191406 C 303.207031 124.945312 307.082031 134.257812 309.808594 143.953125 C 311.457031 149.824219 316.683594 153.792969 322.773438 153.792969 L 343.40625 153.792969 C 344.535156 153.792969 345.566406 154.257812 346.3125 155.003906 L 346.320312 154.996094 L 347.519531 157.910156 L 347.519531 199.007812 C 347.519531 200.136719 347.054688 201.164062 346.3125 201.910156 L 346.320312 201.917969 C 345.574219 202.660156 344.542969 203.121094 343.402344 203.121094 L 322.769531 203.121094 C 316.679688 203.121094 311.449219 207.089844 309.800781 212.960938 C 307.074219 222.671875 303.210938 231.957031 298.285156 240.722656 C 295.308594 246.023438 296.214844 252.5625 300.503906 256.847656 L 315.105469 271.449219 L 315.113281 271.441406 C 315.917969 272.253906 316.320312 273.308594 316.320312 274.359375 L 316.300781 274.359375 C 316.300781 275.414062 315.898438 276.472656 315.105469 277.269531 L 286.046875 306.328125 L 283.136719 307.546875 L 283.136719 307.527344 C 282.144531 307.527344 281.160156 307.183594 280.382812 306.492188 L 265.621094 291.726562 L 265.613281 291.734375 C 257.703125 282.945312 247.363281 290.929688 240.828125 293.964844 C 240.503906 293.4375 240.160156 292.921875 239.800781 292.414062 C 240.46875 291.933594 241.015625 291.277344 241.359375 290.46875 C 257.171875 253.734375 288.984375 225.15625 288.984375 178.453125 C 288.988281 122.265625 243.429688 76.707031 187.238281 76.707031 C 131.042969 76.707031 85.488281 122.261719 85.488281 178.457031 C 85.488281 225.160156 117.292969 253.738281 133.105469 290.472656 C 133.453125 291.28125 134 291.941406 134.664062 292.417969 Z M 134.664062 292.417969 " fill-opacity="1" fill-rule="evenodd"/></svg>