<svg xmlns="http://www.w3.org/2000/svg" xmlns:xlink="http://www.w3.org/1999/xlink" width="500" zoomAndPan="magnify" viewBox="0 0 375 374.999991" height="500" preserveAspectRatio="xMidYMid meet" version="1.0"><path fill="#ffffff" d="M 231.574219 366.550781 L 199.128906 245.464844 C 204.140625 243.566406 208.660156 240.4375 212.265625 236.285156 C 214.925781 233.21875 218.808594 232.179688 222.644531 233.503906 C 231.644531 236.613281 241.492188 235.671875 249.746094 230.910156 C 257.996094 226.144531 263.730469 218.085938 265.546875 208.738281 C 265.925781 206.789062 266.792969 205.113281 268.050781 203.824219 L 306.289062 346.53125 L 258.921875 319.183594 L 231.578125 366.550781 Z M 172.480469 133.75 L 207.773438 90.234375 C 211.003906 86.253906 216.871094 85.652344 220.847656 88.882812 C 224.820312 92.113281 225.425781 97.976562 222.199219 101.953125 L 183.34375 149.867188 C 181.449219 152.203125 178.300781 156.71875 175.820312 158.140625 C 171.386719 160.691406 165.703125 159.152344 163.148438 154.71875 L 145.796875 124.667969 C 143.238281 120.230469 144.78125 114.535156 149.21875 111.984375 C 153.652344 109.433594 159.335938 110.972656 161.890625 115.402344 L 172.480469 133.746094 Z M 168.394531 14.8125 C 163.722656 20.199219 156.632812 22.097656 149.894531 19.769531 C 143.207031 17.464844 135.597656 17.957031 128.996094 21.769531 C 122.390625 25.578125 118.15625 31.925781 116.8125 38.867188 C 115.457031 45.863281 110.265625 51.054688 103.269531 52.410156 C 96.324219 53.753906 89.984375 57.988281 86.167969 64.59375 C 82.355469 71.199219 81.859375 78.808594 84.171875 85.492188 C 86.492188 92.226562 84.59375 99.320312 79.214844 103.996094 C 73.875 108.628906 70.5 115.46875 70.5 123.09375 C 70.5 130.71875 73.875 137.558594 79.214844 142.191406 C 84.601562 146.863281 86.5 153.953125 84.171875 160.695312 C 81.863281 167.378906 82.355469 174.988281 86.167969 181.59375 C 89.980469 188.199219 96.324219 192.429688 103.269531 193.777344 C 110.265625 195.132812 115.457031 200.324219 116.8125 207.320312 C 118.15625 214.265625 122.390625 220.601562 128.996094 224.421875 C 135.597656 228.230469 143.207031 228.726562 149.894531 226.417969 C 156.628906 224.09375 163.71875 225.992188 168.394531 231.375 C 173.03125 236.710938 179.867188 240.089844 187.496094 240.089844 C 195.125 240.089844 201.957031 236.710938 206.59375 231.375 C 211.265625 225.988281 218.355469 224.089844 225.097656 226.417969 C 231.78125 228.722656 239.390625 228.230469 245.996094 224.421875 C 252.597656 220.609375 256.832031 214.265625 258.175781 207.320312 C 259.53125 200.324219 264.722656 195.132812 271.71875 193.777344 C 278.664062 192.429688 285.003906 188.199219 288.820312 181.59375 C 292.632812 174.988281 293.128906 167.378906 290.820312 160.695312 C 288.496094 153.960938 290.394531 146.867188 295.773438 142.191406 C 301.113281 137.558594 304.488281 130.71875 304.488281 123.09375 C 304.488281 115.46875 301.113281 108.628906 295.773438 103.996094 C 290.390625 99.324219 288.488281 92.234375 290.820312 85.492188 C 293.125 78.808594 292.632812 71.199219 288.820312 64.59375 C 285.007812 57.988281 278.664062 53.757812 271.71875 52.410156 C 264.722656 51.054688 259.53125 45.863281 258.175781 38.867188 C 256.832031 31.925781 252.597656 25.585938 245.996094 21.769531 C 239.390625 17.957031 231.78125 17.460938 225.097656 19.769531 C 218.359375 22.09375 211.269531 20.195312 206.59375 14.8125 C 201.957031 9.476562 195.125 6.097656 187.496094 6.097656 C 179.867188 6.097656 173.03125 9.476562 168.394531 14.8125 Z M 187.496094 52.414062 C 148.460938 52.414062 116.816406 84.0625 116.816406 123.09375 C 116.816406 162.125 148.460938 193.773438 187.496094 193.773438 C 226.527344 193.773438 258.171875 162.125 258.171875 123.09375 C 258.171875 84.0625 226.527344 52.414062 187.496094 52.414062 Z M 143.417969 366.554688 L 116.070312 319.1875 L 68.703125 346.535156 L 106.945312 203.828125 C 108.199219 205.125 109.070312 206.796875 109.445312 208.742188 C 111.257812 218.089844 116.992188 226.148438 125.25 230.914062 C 133.5 235.679688 143.351562 236.617188 152.347656 233.507812 C 156.183594 232.1875 160.066406 233.226562 162.726562 236.289062 C 166.332031 240.441406 170.851562 243.566406 175.863281 245.46875 L 143.421875 366.554688 Z M 143.417969 366.554688 " fill-opacity="1" fill-rule="evenodd"/></svg>