<svg xmlns="http://www.w3.org/2000/svg" xmlns:xlink="http://www.w3.org/1999/xlink" width="500" zoomAndPan="magnify" viewBox="0 0 375 374.999991" height="500" preserveAspectRatio="xMidYMid meet" version="1.0"><path fill="#ffffff" d="M 332.285156 193.472656 L 269.335938 276.566406 C 267.355469 279.203125 264.246094 280.761719 260.941406 280.761719 C 258.671875 280.761719 256.457031 280.027344 254.644531 278.664062 C 250.015625 275.1875 249.074219 268.605469 252.546875 263.976562 L 310.777344 187.074219 L 252.546875 108.699219 C 249.074219 104.070312 250.015625 97.488281 254.644531 94.011719 C 259.277344 90.535156 265.859375 91.480469 269.335938 96.109375 L 332.285156 180.882812 C 335.078125 184.605469 335.078125 189.746094 332.285156 193.472656 Z M 64.222656 187.074219 L 122.453125 108.699219 C 125.925781 104.070312 124.984375 97.488281 120.355469 94.011719 C 115.722656 90.535156 109.140625 91.480469 105.664062 96.109375 L 42.714844 180.882812 C 39.921875 184.605469 39.921875 189.746094 42.714844 193.472656 L 105.664062 276.566406 C 107.644531 279.199219 110.753906 280.761719 114.058594 280.761719 C 116.328125 280.761719 118.542969 280.027344 120.355469 278.664062 C 124.984375 275.1875 125.925781 268.605469 122.453125 263.976562 Z M 222.648438 92.648438 C 220.039062 91.664062 217.140625 91.769531 214.59375 92.921875 C 212.050781 94.089844 210.082031 96.214844 209.113281 98.839844 L 146.164062 266.703125 C 145.179688 269.3125 145.285156 272.210938 146.4375 274.753906 C 147.605469 277.300781 149.730469 279.265625 152.355469 280.238281 C 153.535156 280.632812 154.78125 280.800781 156.027344 280.761719 C 160.417969 280.773438 164.355469 278.0625 165.886719 273.941406 L 228.839844 106.078125 C 229.820312 103.46875 229.714844 100.570312 228.5625 98.023438 C 227.394531 95.480469 225.269531 93.511719 222.648438 92.542969 Z M 222.648438 92.648438 " fill-opacity="1" fill-rule="nonzero"/></svg>
