<svg xmlns="http://www.w3.org/2000/svg" xmlns:xlink="http://www.w3.org/1999/xlink" width="500" zoomAndPan="magnify" viewBox="0 0 375 374.999991" height="500" preserveAspectRatio="xMidYMid meet" version="1.0"><defs><clipPath id="87f4e593b6"><path d="M 44.253906 8.445312 L 330.753906 8.445312 L 330.753906 366.195312 L 44.253906 366.195312 Z M 44.253906 8.445312 " clip-rule="nonzero"/></clipPath></defs><g clip-path="url(#87f4e593b6)"><path fill="#ffffff" d="M 330.742188 53.207031 L 330.742188 71.113281 C 330.742188 76.058594 326.730469 80.066406 321.789062 80.066406 L 53.210938 80.066406 C 48.265625 80.066406 44.257812 76.058594 44.257812 71.113281 L 44.257812 53.207031 C 44.257812 48.261719 48.265625 44.253906 53.210938 44.253906 L 133.785156 44.253906 L 133.785156 26.351562 C 133.785156 16.460938 141.800781 8.445312 151.691406 8.445312 L 223.308594 8.445312 C 233.199219 8.445312 241.214844 16.460938 241.214844 26.351562 L 241.214844 44.253906 L 321.789062 44.253906 C 326.730469 44.253906 330.742188 48.261719 330.742188 53.207031 Z M 77.742188 333.242188 C 79.058594 352.035156 94.714844 366.59375 113.550781 366.546875 L 261.804688 366.546875 C 280.644531 366.59375 296.296875 352.035156 297.617188 333.242188 L 312.835938 115.875 L 62.164062 115.875 Z M 77.742188 333.242188 " fill-opacity="1" fill-rule="nonzero"/></g></svg>