<svg xmlns="http://www.w3.org/2000/svg" xmlns:xlink="http://www.w3.org/1999/xlink" width="500" zoomAndPan="magnify" viewBox="0 0 375 374.999991" height="500" preserveAspectRatio="xMidYMid meet" version="1.0"><path fill="#ffffff" d="M 174 222.722656 C 174 215.960938 171.308594 209.464844 166.53125 204.671875 C 161.738281 199.894531 155.242188 197.203125 148.480469 197.203125 C 130.964844 197.203125 101.035156 197.203125 83.519531 197.203125 C 76.757812 197.203125 70.261719 199.894531 65.472656 204.671875 C 60.691406 209.464844 58 215.960938 58 222.722656 C 58 240.238281 58 270.167969 58 287.683594 C 58 294.445312 60.691406 300.941406 65.472656 305.730469 C 70.261719 310.511719 76.757812 313.203125 83.519531 313.203125 C 101.035156 313.203125 130.964844 313.203125 148.480469 313.203125 C 155.242188 313.203125 161.738281 310.511719 166.53125 305.730469 C 171.308594 300.941406 174 294.445312 174 287.683594 Z M 174 222.722656 " fill-opacity="1" fill-rule="evenodd"/><path fill="#ffffff" d="M 313.203125 222.722656 C 313.203125 215.960938 310.511719 209.464844 305.730469 204.671875 C 300.941406 199.894531 294.445312 197.203125 287.683594 197.203125 C 270.167969 197.203125 240.238281 197.203125 222.722656 197.203125 C 215.960938 197.203125 209.464844 199.894531 204.671875 204.671875 C 199.894531 209.464844 197.203125 215.960938 197.203125 222.722656 C 197.203125 240.238281 197.203125 270.167969 197.203125 287.683594 C 197.203125 294.445312 199.894531 300.941406 204.671875 305.730469 C 209.464844 310.511719 215.960938 313.203125 222.722656 313.203125 C 240.238281 313.203125 270.167969 313.203125 287.683594 313.203125 C 294.445312 313.203125 300.941406 310.511719 305.730469 305.730469 C 310.511719 300.941406 313.203125 294.445312 313.203125 287.683594 Z M 313.203125 222.722656 " fill-opacity="1" fill-rule="evenodd"/><path fill="#ffffff" d="M 319.003906 116 C 319.003906 117.046875 318.976562 118.089844 318.925781 119.132812 C 318.875 120.175781 318.796875 121.214844 318.695312 122.253906 C 318.59375 123.292969 318.464844 124.328125 318.3125 125.363281 C 318.160156 126.394531 317.980469 127.421875 317.777344 128.449219 C 317.574219 129.472656 317.34375 130.488281 317.089844 131.503906 C 316.835938 132.515625 316.558594 133.523438 316.253906 134.519531 C 315.953125 135.519531 315.625 136.511719 315.273438 137.496094 C 314.921875 138.476562 314.546875 139.453125 314.144531 140.417969 C 313.746094 141.382812 313.324219 142.335938 312.875 143.277344 C 312.429688 144.222656 311.960938 145.15625 311.46875 146.078125 C 310.976562 146.996094 310.460938 147.90625 309.925781 148.800781 C 309.386719 149.695312 308.828125 150.578125 308.25 151.445312 C 307.667969 152.316406 307.070312 153.167969 306.445312 154.007812 C 305.824219 154.84375 305.183594 155.667969 304.519531 156.476562 C 303.859375 157.28125 303.175781 158.074219 302.476562 158.847656 C 301.773438 159.621094 301.054688 160.375 300.316406 161.113281 C 299.578125 161.851562 298.820312 162.574219 298.046875 163.273438 C 297.273438 163.976562 296.484375 164.65625 295.675781 165.320312 C 294.871094 165.980469 294.046875 166.625 293.207031 167.246094 C 292.367188 167.867188 291.515625 168.46875 290.648438 169.050781 C 289.777344 169.628906 288.898438 170.1875 288 170.722656 C 287.105469 171.261719 286.199219 171.777344 285.277344 172.269531 C 284.355469 172.761719 283.425781 173.230469 282.480469 173.675781 C 281.535156 174.121094 280.582031 174.546875 279.617188 174.945312 C 278.652344 175.34375 277.679688 175.71875 276.695312 176.070312 C 275.710938 176.421875 274.722656 176.75 273.722656 177.054688 C 272.722656 177.355469 271.71875 177.636719 270.703125 177.890625 C 269.691406 178.144531 268.671875 178.371094 267.648438 178.574219 C 266.625 178.777344 265.597656 178.957031 264.5625 179.109375 C 263.53125 179.265625 262.496094 179.390625 261.457031 179.496094 C 260.417969 179.597656 259.375 179.671875 258.332031 179.722656 C 257.289062 179.777344 256.246094 179.800781 255.203125 179.800781 C 254.15625 179.800781 253.113281 179.777344 252.070312 179.722656 C 251.027344 179.671875 249.988281 179.597656 248.949219 179.496094 C 247.910156 179.390625 246.875 179.265625 245.839844 179.109375 C 244.808594 178.957031 243.777344 178.777344 242.753906 178.574219 C 241.730469 178.371094 240.710938 178.144531 239.699219 177.890625 C 238.6875 177.636719 237.679688 177.355469 236.679688 177.054688 C 235.683594 176.75 234.691406 176.421875 233.707031 176.070312 C 232.722656 175.71875 231.75 175.34375 230.785156 174.945312 C 229.820312 174.546875 228.867188 174.121094 227.921875 173.675781 C 226.980469 173.230469 226.046875 172.761719 225.125 172.269531 C 224.207031 171.777344 223.296875 171.261719 222.402344 170.722656 C 221.503906 170.1875 220.625 169.628906 219.753906 169.050781 C 218.886719 168.46875 218.035156 167.867188 217.195312 167.246094 C 216.355469 166.625 215.535156 165.980469 214.726562 165.320312 C 213.917969 164.65625 213.128906 163.976562 212.355469 163.273438 C 211.582031 162.574219 210.824219 161.851562 210.085938 161.113281 C 209.347656 160.375 208.628906 159.621094 207.929688 158.847656 C 207.226562 158.074219 206.546875 157.28125 205.882812 156.476562 C 205.21875 155.667969 204.578125 154.84375 203.957031 154.007812 C 203.335938 153.167969 202.734375 152.316406 202.152344 151.445312 C 201.574219 150.578125 201.015625 149.695312 200.476562 148.800781 C 199.941406 147.90625 199.425781 146.996094 198.933594 146.078125 C 198.441406 145.15625 197.972656 144.222656 197.527344 143.277344 C 197.082031 142.335938 196.65625 141.382812 196.257812 140.417969 C 195.859375 139.453125 195.480469 138.476562 195.128906 137.496094 C 194.777344 136.511719 194.453125 135.519531 194.148438 134.519531 C 193.84375 133.523438 193.566406 132.515625 193.3125 131.503906 C 193.058594 130.488281 192.832031 129.472656 192.628906 128.449219 C 192.421875 127.421875 192.246094 126.394531 192.09375 125.363281 C 191.9375 124.328125 191.8125 123.292969 191.710938 122.253906 C 191.605469 121.214844 191.53125 120.175781 191.476562 119.132812 C 191.425781 118.089844 191.402344 117.046875 191.402344 116 C 191.402344 114.957031 191.425781 113.914062 191.476562 112.871094 C 191.53125 111.828125 191.605469 110.785156 191.710938 109.746094 C 191.8125 108.707031 191.9375 107.671875 192.089844 106.640625 C 192.246094 105.605469 192.421875 104.578125 192.628906 103.554688 C 192.832031 102.53125 193.058594 101.511719 193.3125 100.5 C 193.566406 99.484375 193.84375 98.480469 194.148438 97.480469 C 194.453125 96.480469 194.777344 95.488281 195.128906 94.507812 C 195.480469 93.523438 195.859375 92.550781 196.257812 91.585938 C 196.65625 90.621094 197.078125 89.667969 197.527344 88.722656 C 197.972656 87.777344 198.441406 86.847656 198.933594 85.925781 C 199.425781 85.003906 199.941406 84.097656 200.476562 83.199219 C 201.015625 82.304688 201.574219 81.421875 202.152344 80.554688 C 202.734375 79.6875 203.335938 78.832031 203.957031 77.996094 C 204.578125 77.15625 205.21875 76.332031 205.882812 75.527344 C 206.546875 74.71875 207.226562 73.929688 207.929688 73.15625 C 208.628906 72.382812 209.347656 71.625 210.085938 70.886719 C 210.824219 70.148438 211.582031 69.429688 212.355469 68.726562 C 213.128906 68.027344 213.921875 67.34375 214.726562 66.683594 C 215.535156 66.019531 216.355469 65.378906 217.195312 64.753906 C 218.035156 64.132812 218.886719 63.53125 219.753906 62.953125 C 220.625 62.371094 221.503906 61.8125 222.402344 61.277344 C 223.296875 60.742188 224.207031 60.226562 225.125 59.734375 C 226.046875 59.242188 226.980469 58.773438 227.921875 58.324219 C 228.867188 57.878906 229.820312 57.457031 230.785156 57.058594 C 231.75 56.65625 232.722656 56.28125 233.707031 55.929688 C 234.691406 55.578125 235.683594 55.25 236.679688 54.949219 C 237.679688 54.644531 238.6875 54.367188 239.699219 54.113281 C 240.710938 53.859375 241.730469 53.628906 242.753906 53.425781 C 243.777344 53.222656 244.808594 53.042969 245.839844 52.890625 C 246.875 52.738281 247.910156 52.609375 248.949219 52.507812 C 249.988281 52.40625 251.027344 52.328125 252.070312 52.277344 C 253.113281 52.226562 254.15625 52.199219 255.203125 52.199219 C 256.246094 52.199219 257.289062 52.226562 258.332031 52.277344 C 259.375 52.328125 260.417969 52.40625 261.457031 52.507812 C 262.496094 52.609375 263.53125 52.738281 264.5625 52.890625 C 265.597656 53.042969 266.625 53.222656 267.648438 53.425781 C 268.671875 53.628906 269.691406 53.859375 270.703125 54.113281 C 271.71875 54.367188 272.722656 54.644531 273.722656 54.949219 C 274.722656 55.25 275.710938 55.578125 276.695312 55.929688 C 277.679688 56.28125 278.652344 56.65625 279.617188 57.058594 C 280.582031 57.457031 281.535156 57.878906 282.480469 58.324219 C 283.425781 58.773438 284.355469 59.242188 285.277344 59.734375 C 286.199219 60.226562 287.105469 60.742188 288 61.277344 C 288.898438 61.8125 289.777344 62.371094 290.648438 62.953125 C 291.515625 63.53125 292.367188 64.132812 293.207031 64.753906 C 294.046875 65.378906 294.871094 66.019531 295.675781 66.683594 C 296.484375 67.34375 297.273438 68.027344 298.046875 68.726562 C 298.820312 69.429688 299.578125 70.148438 300.316406 70.886719 C 301.054688 71.625 301.773438 72.382812 302.476562 73.15625 C 303.175781 73.929688 303.859375 74.71875 304.519531 75.527344 C 305.183594 76.332031 305.824219 77.15625 306.445312 77.996094 C 307.070312 78.832031 307.667969 79.6875 308.25 80.554688 C 308.828125 81.421875 309.386719 82.304688 309.925781 83.199219 C 310.460938 84.097656 310.976562 85.003906 311.46875 85.925781 C 311.960938 86.847656 312.429688 87.777344 312.875 88.722656 C 313.324219 89.667969 313.746094 90.621094 314.144531 91.585938 C 314.546875 92.550781 314.921875 93.523438 315.273438 94.507812 C 315.625 95.488281 315.953125 96.480469 316.253906 97.480469 C 316.558594 98.480469 316.835938 99.484375 317.089844 100.5 C 317.34375 101.511719 317.574219 102.53125 317.777344 103.554688 C 317.980469 104.578125 318.160156 105.605469 318.3125 106.640625 C 318.464844 107.671875 318.59375 108.707031 318.695312 109.746094 C 318.796875 110.785156 318.875 111.828125 318.925781 112.871094 C 318.976562 113.914062 319.003906 114.957031 319.003906 116 Z M 319.003906 116 " fill-opacity="1" fill-rule="nonzero"/><path fill="#ffffff" d="M 174 83.519531 C 174 76.757812 171.308594 70.261719 166.53125 65.472656 C 161.738281 60.691406 155.242188 58 148.480469 58 C 130.964844 58 101.035156 58 83.519531 58 C 76.757812 58 70.261719 60.691406 65.472656 65.472656 C 60.691406 70.261719 58 76.757812 58 83.519531 C 58 101.035156 58 130.964844 58 148.480469 C 58 155.242188 60.691406 161.738281 65.472656 166.53125 C 70.261719 171.308594 76.757812 174 83.519531 174 C 101.035156 174 130.964844 174 148.480469 174 C 155.242188 174 161.738281 171.308594 166.53125 166.53125 C 171.308594 161.738281 174 155.242188 174 148.480469 Z M 174 83.519531 " fill-opacity="1" fill-rule="evenodd"/></svg>