<svg xmlns="http://www.w3.org/2000/svg" xmlns:xlink="http://www.w3.org/1999/xlink" width="500" zoomAndPan="magnify" viewBox="0 0 375 374.999991" height="500" preserveAspectRatio="xMidYMid meet" version="1.0"><path fill="#ffffff" d="M 353.851562 28.632812 L 353.851562 66.449219 C 353.851562 72.699219 348.761719 77.789062 342.511719 77.789062 L 32.480469 77.777344 C 26.226562 77.777344 21.136719 72.6875 21.136719 66.433594 L 21.136719 28.632812 C 21.136719 22.382812 26.226562 17.289062 32.480469 17.289062 L 342.523438 17.289062 C 348.777344 17.289062 353.867188 22.382812 353.867188 28.632812 Z M 316.988281 85.347656 L 58 85.347656 C 51.75 85.347656 46.660156 90.4375 46.660156 96.691406 L 46.660156 134.503906 C 46.660156 140.757812 51.75 145.847656 58 145.847656 L 317 145.847656 C 323.253906 145.847656 328.34375 140.757812 328.34375 134.503906 L 328.34375 96.691406 C 328.34375 90.4375 323.253906 85.347656 317 85.347656 Z M 291.46875 153.40625 L 83.523438 153.40625 C 77.273438 153.40625 72.183594 158.496094 72.183594 164.75 L 72.183594 202.5625 C 72.183594 208.816406 77.273438 213.90625 83.523438 213.90625 L 291.484375 213.90625 C 297.734375 213.90625 302.824219 208.816406 302.824219 202.5625 L 302.824219 164.75 C 302.824219 158.496094 297.734375 153.40625 291.484375 153.40625 Z M 265.945312 221.460938 L 109.042969 221.460938 C 102.792969 221.460938 97.703125 226.550781 97.703125 232.804688 L 97.703125 270.621094 C 97.703125 276.871094 102.792969 281.960938 109.042969 281.960938 L 265.957031 281.960938 C 272.210938 281.960938 277.300781 276.871094 277.300781 270.621094 L 277.300781 232.804688 C 277.300781 226.550781 272.210938 221.460938 265.957031 221.460938 Z M 240.425781 289.519531 L 134.554688 289.519531 C 128.300781 289.519531 123.210938 294.609375 123.210938 300.863281 L 123.210938 338.675781 C 123.210938 344.929688 128.300781 350.019531 134.554688 350.019531 L 240.425781 350.019531 C 246.679688 350.019531 251.769531 344.929688 251.769531 338.675781 L 251.769531 300.863281 C 251.769531 294.609375 246.679688 289.519531 240.425781 289.519531 Z M 240.425781 289.519531 " fill-opacity="1" fill-rule="nonzero"/></svg>