<svg xmlns="http://www.w3.org/2000/svg" xmlns:xlink="http://www.w3.org/1999/xlink" width="500" zoomAndPan="magnify" viewBox="0 0 375 374.999991" height="500" preserveAspectRatio="xMidYMid meet" version="1.0"><defs><clipPath id="6cd0760e01"><path d="M 11.507812 11.507812 L 363.257812 11.507812 L 363.257812 363.257812 L 11.507812 363.257812 Z M 11.507812 11.507812 " clip-rule="nonzero"/></clipPath></defs><path fill="#ffffff" d="M 187.496094 116.660156 C 148.351562 116.660156 116.507812 148.503906 116.507812 187.648438 C 116.507812 226.792969 148.351562 258.636719 187.496094 258.636719 C 226.636719 258.636719 258.484375 226.789062 258.484375 187.648438 C 258.484375 148.503906 226.636719 116.660156 187.496094 116.660156 Z M 187.496094 241.484375 C 157.808594 241.484375 133.660156 217.332031 133.660156 187.648438 C 133.660156 157.964844 157.808594 133.8125 187.496094 133.8125 C 217.179688 133.8125 241.328125 157.964844 241.328125 187.648438 C 241.328125 217.332031 217.179688 241.484375 187.496094 241.484375 Z M 187.496094 241.484375 " fill-opacity="1" fill-rule="nonzero"/><g clip-path="url(#6cd0760e01)"><path fill="#ffffff" d="M 354.914062 143.773438 L 315.417969 143.773438 C 313.570312 138.375 311.375 133.09375 308.851562 127.972656 L 336.792969 100.027344 C 340.144531 96.679688 340.144531 91.25 336.792969 87.898438 L 287.089844 38.195312 C 283.742188 34.847656 278.3125 34.847656 274.960938 38.195312 L 246.960938 66.195312 C 241.863281 63.691406 236.601562 61.511719 231.21875 59.671875 L 231.21875 20.074219 C 231.21875 15.339844 227.378906 11.5 222.640625 11.5 L 152.347656 11.5 C 147.613281 11.5 143.773438 15.339844 143.773438 20.074219 L 143.773438 59.671875 C 138.390625 61.511719 133.125 63.691406 128.027344 66.195312 L 100.027344 38.195312 C 96.679688 34.847656 91.25 34.847656 87.898438 38.195312 L 38.195312 87.898438 C 34.847656 91.25 34.847656 96.679688 38.195312 100.027344 L 66.140625 127.972656 C 63.617188 133.09375 61.421875 138.375 59.574219 143.773438 L 20.074219 143.773438 C 15.339844 143.773438 11.5 147.613281 11.5 152.347656 L 11.5 222.640625 C 11.5 227.378906 15.339844 231.21875 20.074219 231.21875 L 59.46875 231.21875 C 61.316406 236.652344 63.511719 241.964844 66.035156 247.117188 L 38.195312 274.960938 C 34.84375 278.308594 34.84375 283.742188 38.195312 287.089844 L 87.898438 336.796875 C 89.507812 338.402344 91.6875 339.308594 93.964844 339.308594 C 96.238281 339.308594 98.417969 338.402344 100.027344 336.796875 L 127.820312 309.003906 C 132.980469 311.546875 138.3125 313.757812 143.773438 315.621094 L 143.773438 354.914062 C 143.773438 359.652344 147.609375 363.492188 152.347656 363.492188 L 222.640625 363.492188 C 227.375 363.492188 231.21875 359.652344 231.21875 354.914062 L 231.21875 315.621094 C 236.675781 313.757812 242.007812 311.546875 247.167969 309.003906 L 274.960938 336.796875 C 276.636719 338.46875 278.828125 339.308594 281.023438 339.308594 C 283.21875 339.308594 285.414062 338.46875 287.089844 336.796875 L 336.792969 287.089844 C 338.402344 285.484375 339.304688 283.300781 339.304688 281.027344 C 339.304688 278.753906 338.402344 276.570312 336.792969 274.964844 L 308.953125 247.121094 C 311.476562 241.96875 313.671875 236.652344 315.519531 231.21875 L 354.914062 231.21875 C 359.648438 231.21875 363.488281 227.378906 363.488281 222.640625 L 363.488281 152.347656 C 363.492188 147.613281 359.648438 143.773438 354.914062 143.773438 Z M 346.335938 214.066406 L 309.089844 214.066406 C 309.046875 214.066406 309 214.066406 308.953125 214.070312 C 304.507812 214.113281 300.875 217.539062 300.5 221.894531 C 298.296875 229.183594 295.378906 236.261719 291.808594 242.984375 C 288.890625 246.355469 289.027344 251.449219 292.226562 254.652344 L 318.601562 281.027344 L 281.027344 318.601562 L 254.652344 292.226562 C 251.390625 288.96875 246.171875 288.890625 242.804688 291.96875 C 236.285156 295.4375 229.410156 298.292969 222.320312 300.476562 C 217.734375 300.648438 214.0625 304.410156 214.0625 309.039062 L 214.0625 309.160156 C 214.0625 309.167969 214.0625 309.175781 214.0625 309.179688 L 214.0625 346.335938 L 160.925781 346.335938 L 160.925781 309.175781 C 160.925781 309.171875 160.925781 309.164062 160.925781 309.160156 L 160.925781 309.039062 C 160.925781 304.410156 157.253906 300.648438 152.667969 300.476562 C 145.578125 298.289062 138.707031 295.4375 132.1875 291.96875 C 128.820312 288.890625 123.597656 288.96875 120.339844 292.226562 L 93.964844 318.601562 L 56.386719 281.027344 L 82.761719 254.652344 C 85.960938 251.453125 86.097656 246.355469 83.183594 242.988281 C 79.609375 236.261719 76.691406 229.179688 74.492188 221.890625 C 74.109375 217.53125 70.472656 214.105469 66.023438 214.066406 C 65.988281 214.066406 65.949219 214.066406 65.914062 214.0625 L 28.652344 214.0625 L 28.652344 160.921875 L 65.820312 160.921875 C 65.832031 160.921875 65.839844 160.925781 65.851562 160.925781 C 65.867188 160.925781 65.886719 160.921875 65.902344 160.921875 L 65.953125 160.921875 C 66.019531 160.921875 66.089844 160.914062 66.15625 160.914062 C 66.304688 160.90625 66.453125 160.902344 66.597656 160.890625 C 70.605469 160.589844 73.835938 157.542969 74.421875 153.621094 C 76.738281 145.894531 79.859375 138.398438 83.726562 131.308594 C 85.992188 128.066406 85.757812 123.621094 83.027344 120.628906 C 82.953125 120.546875 82.882812 120.460938 82.804688 120.382812 C 82.789062 120.367188 82.777344 120.351562 82.765625 120.339844 L 56.390625 93.964844 L 93.964844 56.386719 L 120.304688 82.726562 C 120.308594 82.730469 120.316406 82.738281 120.320312 82.742188 L 120.339844 82.761719 C 120.582031 83.003906 120.835938 83.222656 121.097656 83.429688 C 121.171875 83.488281 121.25 83.542969 121.328125 83.597656 C 121.542969 83.757812 121.761719 83.902344 121.988281 84.039062 C 122.0625 84.085938 122.136719 84.128906 122.210938 84.171875 C 122.507812 84.339844 122.808594 84.492188 123.117188 84.621094 C 123.121094 84.621094 123.121094 84.621094 123.125 84.621094 C 123.449219 84.757812 123.78125 84.867188 124.117188 84.960938 C 124.1875 84.976562 124.257812 84.992188 124.328125 85.011719 C 124.589844 85.078125 124.855469 85.128906 125.121094 85.167969 C 125.214844 85.183594 125.308594 85.199219 125.40625 85.210938 C 125.71875 85.246094 126.03125 85.269531 126.347656 85.273438 C 126.367188 85.273438 126.390625 85.277344 126.414062 85.277344 C 126.464844 85.277344 126.515625 85.265625 126.5625 85.265625 C 126.824219 85.261719 127.082031 85.246094 127.339844 85.21875 C 127.464844 85.203125 127.585938 85.183594 127.707031 85.164062 C 127.910156 85.132812 128.113281 85.097656 128.3125 85.050781 C 128.429688 85.023438 128.546875 84.996094 128.660156 84.964844 C 128.917969 84.894531 129.167969 84.8125 129.417969 84.722656 C 129.472656 84.699219 129.527344 84.683594 129.582031 84.664062 C 129.894531 84.539062 130.199219 84.394531 130.496094 84.230469 C 130.515625 84.222656 130.539062 84.214844 130.558594 84.203125 C 138.1875 79.984375 146.316406 76.617188 154.722656 74.195312 C 154.746094 74.1875 154.765625 74.179688 154.785156 74.175781 C 154.976562 74.117188 155.160156 74.050781 155.34375 73.980469 C 155.429688 73.949219 155.519531 73.921875 155.605469 73.886719 C 155.765625 73.820312 155.921875 73.746094 156.074219 73.667969 C 156.179688 73.617188 156.285156 73.574219 156.386719 73.519531 C 156.503906 73.457031 156.617188 73.386719 156.730469 73.316406 C 156.859375 73.238281 156.992188 73.164062 157.117188 73.082031 C 157.195312 73.03125 157.265625 72.972656 157.339844 72.917969 C 157.492188 72.808594 157.644531 72.703125 157.789062 72.582031 C 157.84375 72.539062 157.890625 72.492188 157.945312 72.445312 C 158.101562 72.308594 158.253906 72.175781 158.398438 72.03125 C 158.460938 71.972656 158.511719 71.90625 158.570312 71.84375 C 158.699219 71.710938 158.828125 71.574219 158.949219 71.429688 C 159.039062 71.324219 159.117188 71.210938 159.199219 71.097656 C 159.277344 70.992188 159.363281 70.890625 159.4375 70.78125 C 159.546875 70.621094 159.644531 70.453125 159.742188 70.285156 C 159.78125 70.21875 159.824219 70.15625 159.863281 70.089844 C 159.964844 69.90625 160.050781 69.71875 160.140625 69.527344 C 160.167969 69.46875 160.199219 69.410156 160.226562 69.347656 C 160.300781 69.175781 160.359375 69 160.421875 68.824219 C 160.453125 68.734375 160.492188 68.652344 160.519531 68.5625 C 160.5625 68.421875 160.597656 68.277344 160.636719 68.132812 C 160.671875 68 160.707031 67.871094 160.738281 67.738281 C 160.761719 67.628906 160.773438 67.519531 160.792969 67.40625 C 160.824219 67.234375 160.855469 67.058594 160.875 66.882812 C 160.882812 66.796875 160.886719 66.707031 160.890625 66.621094 C 160.90625 66.421875 160.921875 66.21875 160.921875 66.015625 C 160.921875 65.996094 160.925781 65.976562 160.925781 65.953125 L 160.925781 28.652344 L 214.066406 28.652344 L 214.066406 65.953125 C 214.066406 65.972656 214.070312 65.992188 214.070312 66.015625 C 214.070312 66.214844 214.082031 66.414062 214.097656 66.613281 C 214.105469 66.703125 214.109375 66.792969 214.117188 66.882812 C 214.136719 67.054688 214.167969 67.222656 214.195312 67.394531 C 214.214844 67.507812 214.230469 67.625 214.253906 67.738281 C 214.28125 67.863281 214.316406 67.988281 214.351562 68.117188 C 214.390625 68.265625 214.425781 68.417969 214.472656 68.5625 C 214.5 68.644531 214.53125 68.726562 214.5625 68.808594 C 214.625 68.988281 214.6875 69.171875 214.765625 69.347656 C 214.789062 69.402344 214.820312 69.457031 214.84375 69.511719 C 214.933594 69.707031 215.023438 69.898438 215.128906 70.085938 C 215.164062 70.152344 215.207031 70.214844 215.246094 70.277344 C 215.34375 70.449219 215.441406 70.617188 215.554688 70.78125 C 215.625 70.886719 215.710938 70.988281 215.789062 71.09375 C 215.871094 71.203125 215.949219 71.320312 216.039062 71.425781 C 216.160156 71.574219 216.292969 71.710938 216.421875 71.847656 C 216.476562 71.90625 216.53125 71.96875 216.585938 72.027344 C 216.734375 72.175781 216.890625 72.3125 217.050781 72.449219 C 217.101562 72.492188 217.148438 72.539062 217.199219 72.582031 C 217.34375 72.699219 217.5 72.8125 217.652344 72.921875 C 217.726562 72.972656 217.796875 73.027344 217.871094 73.078125 C 217.996094 73.164062 218.132812 73.238281 218.261719 73.316406 C 218.375 73.386719 218.484375 73.457031 218.601562 73.515625 C 218.703125 73.570312 218.8125 73.617188 218.917969 73.667969 C 219.070312 73.742188 219.226562 73.820312 219.386719 73.882812 C 219.472656 73.917969 219.5625 73.949219 219.648438 73.980469 C 219.832031 74.050781 220.015625 74.117188 220.203125 74.171875 C 220.222656 74.175781 220.246094 74.1875 220.265625 74.191406 C 228.671875 76.613281 236.800781 79.980469 244.433594 84.203125 C 244.453125 84.214844 244.472656 84.21875 244.492188 84.230469 C 244.792969 84.394531 245.097656 84.539062 245.410156 84.664062 C 245.460938 84.683594 245.511719 84.699219 245.566406 84.71875 C 245.816406 84.8125 246.074219 84.894531 246.332031 84.964844 C 246.445312 84.996094 246.558594 85.023438 246.671875 85.050781 C 246.878906 85.097656 247.082031 85.132812 247.292969 85.167969 C 247.410156 85.183594 247.527344 85.203125 247.648438 85.21875 C 247.914062 85.246094 248.179688 85.261719 248.449219 85.265625 C 248.492188 85.269531 248.535156 85.273438 248.578125 85.273438 C 248.59375 85.273438 248.609375 85.273438 248.628906 85.273438 C 248.949219 85.269531 249.269531 85.246094 249.589844 85.207031 C 249.679688 85.195312 249.773438 85.183594 249.863281 85.167969 C 250.132812 85.128906 250.402344 85.074219 250.667969 85.007812 C 250.734375 84.992188 250.800781 84.976562 250.867188 84.960938 C 251.527344 84.777344 252.171875 84.511719 252.78125 84.171875 C 252.855469 84.128906 252.925781 84.085938 253 84.039062 C 253.226562 83.90625 253.449219 83.757812 253.664062 83.597656 C 253.738281 83.542969 253.816406 83.488281 253.890625 83.429688 C 254.152344 83.222656 254.40625 83.003906 254.648438 82.761719 L 254.671875 82.738281 C 254.675781 82.738281 254.679688 82.730469 254.683594 82.726562 L 281.023438 56.386719 L 318.601562 93.964844 L 292.226562 120.339844 C 292.210938 120.351562 292.203125 120.367188 292.191406 120.378906 C 292.105469 120.464844 292.03125 120.554688 291.953125 120.640625 C 289.230469 123.632812 289 128.070312 291.261719 131.308594 C 295.128906 138.402344 298.253906 145.898438 300.5625 153.625 C 301.152344 157.546875 304.386719 160.597656 308.402344 160.894531 C 308.515625 160.902344 308.628906 160.90625 308.742188 160.910156 C 308.839844 160.914062 308.9375 160.925781 309.035156 160.925781 L 309.105469 160.925781 C 309.117188 160.925781 309.125 160.925781 309.136719 160.925781 C 309.140625 160.925781 309.148438 160.925781 309.152344 160.925781 L 346.335938 160.925781 Z M 346.335938 214.066406 " fill-opacity="1" fill-rule="nonzero"/></g></svg>