<svg xmlns="http://www.w3.org/2000/svg" xmlns:xlink="http://www.w3.org/1999/xlink" width="500" zoomAndPan="magnify" viewBox="0 0 375 374.999991" height="500" preserveAspectRatio="xMidYMid meet" version="1.0"><path fill="#ffffff" d="M 188.757812 23 C 184.921875 23 178.832031 23.273438 172.597656 28.546875 L 25.363281 153.128906 C 24.914062 153.421875 24.503906 153.757812 24.125 154.136719 C 23.746094 154.515625 23.414062 154.929688 23.125 155.382812 C 22.835938 155.832031 22.597656 156.308594 22.410156 156.8125 C 22.222656 157.3125 22.089844 157.828125 22.011719 158.359375 C 21.933594 158.886719 21.914062 159.421875 21.949219 159.953125 C 21.984375 160.488281 22.074219 161.011719 22.222656 161.527344 C 22.367188 162.042969 22.566406 162.539062 22.820312 163.007812 C 23.070312 163.480469 23.371094 163.921875 23.714844 164.332031 C 24.0625 164.742188 24.445312 165.109375 24.871094 165.4375 C 25.296875 165.761719 25.75 166.042969 26.230469 166.273438 C 26.714844 166.503906 27.21875 166.679688 27.738281 166.804688 C 28.261719 166.925781 28.789062 166.996094 29.324219 167.007812 C 29.859375 167.019531 30.390625 166.972656 30.914062 166.871094 C 31.441406 166.769531 31.949219 166.613281 32.441406 166.402344 C 32.9375 166.195312 33.402344 165.933594 33.839844 165.625 C 34.277344 165.316406 34.675781 164.964844 35.039062 164.570312 L 182.269531 39.988281 C 183.234375 39.175781 188.878906 38.101562 188.757812 38.101562 C 188.371094 38.101562 190.382812 38.148438 191.945312 38.574219 C 193.507812 39 195.023438 39.800781 195.25 39.988281 L 342.480469 164.570312 C 342.84375 164.964844 343.242188 165.316406 343.679688 165.625 C 344.117188 165.933594 344.582031 166.195312 345.078125 166.402344 C 345.570312 166.613281 346.078125 166.769531 346.605469 166.871094 C 347.128906 166.972656 347.660156 167.019531 348.195312 167.007812 C 348.730469 166.996094 349.257812 166.925781 349.78125 166.804688 C 350.300781 166.679688 350.804688 166.503906 351.289062 166.273438 C 351.769531 166.042969 352.222656 165.761719 352.648438 165.4375 C 353.074219 165.109375 353.457031 164.742188 353.804688 164.332031 C 354.148438 163.921875 354.449219 163.480469 354.699219 163.007812 C 354.953125 162.539062 355.152344 162.042969 355.296875 161.527344 C 355.445312 161.011719 355.535156 160.488281 355.570312 159.953125 C 355.605469 159.421875 355.585938 158.886719 355.507812 158.359375 C 355.429688 157.828125 355.296875 157.3125 355.109375 156.8125 C 354.921875 156.308594 354.683594 155.832031 354.394531 155.382812 C 354.105469 154.929688 353.773438 154.515625 353.394531 154.136719 C 353.015625 153.757812 352.605469 153.421875 352.15625 153.128906 L 204.921875 28.546875 C 201.835938 25.933594 198.644531 24.828125 195.839844 24.0625 C 193.03125 23.300781 191.007812 23 188.757812 23 Z M 67.835938 165.042969 C 67.339844 165.050781 66.847656 165.105469 66.363281 165.210938 C 65.878906 165.316406 65.410156 165.464844 64.957031 165.664062 C 64.5 165.859375 64.070312 166.097656 63.660156 166.382812 C 63.253906 166.664062 62.875 166.980469 62.53125 167.339844 C 62.1875 167.695312 61.878906 168.082031 61.609375 168.496094 C 61.339844 168.914062 61.117188 169.351562 60.933594 169.8125 C 60.75 170.273438 60.613281 170.75 60.523438 171.238281 C 60.4375 171.722656 60.394531 172.214844 60.402344 172.710938 L 60.402344 309.917969 C 60.402344 310.414062 60.453125 310.902344 60.546875 311.390625 C 60.644531 311.875 60.789062 312.347656 60.976562 312.804688 C 61.167969 313.265625 61.398438 313.699219 61.675781 314.109375 C 61.953125 314.523438 62.265625 314.90625 62.613281 315.253906 C 62.964844 315.605469 63.347656 315.917969 63.757812 316.195312 C 64.171875 316.46875 64.605469 316.703125 65.0625 316.890625 C 65.523438 317.082031 65.996094 317.226562 66.480469 317.320312 C 66.964844 317.417969 67.457031 317.46875 67.953125 317.46875 L 309.566406 317.46875 C 310.0625 317.46875 310.550781 317.417969 311.039062 317.320312 C 311.523438 317.226562 311.996094 317.082031 312.457031 316.890625 C 312.914062 316.703125 313.347656 316.46875 313.761719 316.195312 C 314.171875 315.917969 314.554688 315.605469 314.90625 315.253906 C 315.253906 314.90625 315.566406 314.523438 315.84375 314.109375 C 316.121094 313.699219 316.351562 313.265625 316.542969 312.804688 C 316.730469 312.347656 316.875 311.875 316.972656 311.390625 C 317.066406 310.902344 317.117188 310.414062 317.117188 309.917969 L 317.117188 172.710938 C 317.125 172.210938 317.082031 171.714844 316.988281 171.222656 C 316.898438 170.730469 316.757812 170.253906 316.574219 169.789062 C 316.386719 169.324219 316.15625 168.882812 315.882812 168.464844 C 315.605469 168.046875 315.292969 167.660156 314.941406 167.304688 C 314.589844 166.949219 314.207031 166.628906 313.792969 166.347656 C 313.378906 166.070312 312.941406 165.832031 312.480469 165.640625 C 312.019531 165.445312 311.542969 165.300781 311.050781 165.203125 C 310.5625 165.105469 310.066406 165.054688 309.566406 165.054688 C 309.066406 165.054688 308.570312 165.105469 308.078125 165.203125 C 307.589844 165.300781 307.113281 165.445312 306.652344 165.640625 C 306.191406 165.832031 305.753906 166.070312 305.335938 166.347656 C 304.921875 166.628906 304.539062 166.949219 304.1875 167.304688 C 303.835938 167.660156 303.523438 168.046875 303.25 168.464844 C 302.976562 168.882812 302.746094 169.324219 302.558594 169.789062 C 302.371094 170.253906 302.234375 170.730469 302.140625 171.222656 C 302.050781 171.714844 302.007812 172.210938 302.015625 172.710938 L 302.015625 302.367188 L 75.503906 302.367188 L 75.503906 172.710938 C 75.511719 172.207031 75.46875 171.703125 75.375 171.207031 C 75.285156 170.710938 75.140625 170.226562 74.953125 169.757812 C 74.761719 169.289062 74.527344 168.84375 74.25 168.421875 C 73.96875 168 73.652344 167.613281 73.292969 167.253906 C 72.933594 166.898438 72.546875 166.578125 72.125 166.300781 C 71.703125 166.019531 71.257812 165.785156 70.789062 165.59375 C 70.320312 165.40625 69.835938 165.265625 69.339844 165.171875 C 68.84375 165.078125 68.339844 165.035156 67.835938 165.042969 Z M 67.835938 165.042969 " fill-opacity="1" fill-rule="nonzero"/></svg>