<svg xmlns="http://www.w3.org/2000/svg" xmlns:xlink="http://www.w3.org/1999/xlink" width="500" zoomAndPan="magnify" viewBox="0 0 375 374.999991" height="500" preserveAspectRatio="xMidYMid meet" version="1.0"><path fill="#ffffff" d="M 243.050781 92.226562 L 39.792969 92.226562 C 39.089844 92.226562 38.394531 92.292969 37.703125 92.433594 C 37.015625 92.570312 36.347656 92.773438 35.699219 93.039062 C 35.046875 93.308594 34.433594 93.640625 33.847656 94.027344 C 33.265625 94.417969 32.722656 94.863281 32.226562 95.359375 C 31.730469 95.855469 31.285156 96.398438 30.898438 96.980469 C 30.507812 97.566406 30.175781 98.179688 29.90625 98.828125 C 29.640625 99.480469 29.4375 100.148438 29.300781 100.835938 C 29.164062 101.527344 29.09375 102.222656 29.09375 102.925781 C 29.09375 103.625 29.164062 104.320312 29.300781 105.011719 C 29.4375 105.699219 29.640625 106.367188 29.90625 107.019531 C 30.175781 107.667969 30.507812 108.285156 30.898438 108.867188 C 31.285156 109.453125 31.730469 109.992188 32.226562 110.488281 C 32.722656 110.984375 33.265625 111.429688 33.847656 111.820312 C 34.433594 112.210938 35.046875 112.539062 35.699219 112.808594 C 36.347656 113.078125 37.015625 113.28125 37.703125 113.417969 C 38.394531 113.554688 39.089844 113.621094 39.792969 113.621094 L 243.050781 113.621094 C 243.753906 113.621094 244.449219 113.554688 245.140625 113.417969 C 245.828125 113.28125 246.496094 113.078125 247.144531 112.808594 C 247.796875 112.539062 248.410156 112.210938 248.996094 111.820312 C 249.578125 111.429688 250.121094 110.984375 250.617188 110.488281 C 251.113281 109.992188 251.558594 109.453125 251.945312 108.867188 C 252.335938 108.285156 252.667969 107.667969 252.9375 107.019531 C 253.203125 106.367188 253.40625 105.699219 253.542969 105.011719 C 253.679688 104.320312 253.75 103.625 253.75 102.925781 C 253.75 102.222656 253.679688 101.527344 253.542969 100.835938 C 253.40625 100.148438 253.203125 99.480469 252.9375 98.828125 C 252.667969 98.179688 252.335938 97.566406 251.945312 96.980469 C 251.558594 96.398438 251.113281 95.855469 250.617188 95.359375 C 250.121094 94.863281 249.578125 94.417969 248.996094 94.027344 C 248.410156 93.640625 247.796875 93.308594 247.144531 93.039062 C 246.496094 92.773438 245.828125 92.570312 245.140625 92.433594 C 244.449219 92.292969 243.753906 92.226562 243.050781 92.226562 Z M 243.050781 92.226562 " fill-opacity="1" fill-rule="nonzero"/><path fill="#ffffff" d="M 39.792969 199.207031 L 157.46875 199.207031 C 158.171875 199.207031 158.867188 199.136719 159.554688 199 C 160.246094 198.863281 160.914062 198.660156 161.5625 198.390625 C 162.210938 198.121094 162.828125 197.792969 163.414062 197.402344 C 163.996094 197.011719 164.535156 196.570312 165.035156 196.070312 C 165.53125 195.574219 165.972656 195.035156 166.363281 194.449219 C 166.753906 193.867188 167.082031 193.25 167.351562 192.601562 C 167.621094 191.953125 167.824219 191.285156 167.960938 190.59375 C 168.097656 189.90625 168.167969 189.210938 168.167969 188.507812 C 168.167969 187.804688 168.097656 187.109375 167.960938 186.421875 C 167.824219 185.730469 167.621094 185.0625 167.351562 184.414062 C 167.082031 183.765625 166.753906 183.148438 166.363281 182.5625 C 165.972656 181.980469 165.53125 181.4375 165.035156 180.941406 C 164.535156 180.445312 163.996094 180.003906 163.414062 179.613281 C 162.828125 179.222656 162.210938 178.890625 161.5625 178.625 C 160.914062 178.355469 160.246094 178.152344 159.554688 178.015625 C 158.867188 177.878906 158.171875 177.808594 157.46875 177.808594 L 39.792969 177.808594 C 39.089844 177.808594 38.394531 177.878906 37.703125 178.015625 C 37.015625 178.152344 36.347656 178.355469 35.699219 178.625 C 35.046875 178.890625 34.433594 179.222656 33.847656 179.613281 C 33.265625 180.003906 32.722656 180.445312 32.226562 180.941406 C 31.730469 181.4375 31.285156 181.980469 30.898438 182.5625 C 30.507812 183.148438 30.175781 183.765625 29.90625 184.414062 C 29.640625 185.0625 29.4375 185.730469 29.300781 186.421875 C 29.164062 187.109375 29.09375 187.804688 29.09375 188.507812 C 29.09375 189.210938 29.164062 189.90625 29.300781 190.59375 C 29.4375 191.285156 29.640625 191.953125 29.90625 192.601562 C 30.175781 193.25 30.507812 193.867188 30.898438 194.449219 C 31.285156 195.035156 31.730469 195.574219 32.226562 196.070312 C 32.722656 196.570312 33.265625 197.011719 33.847656 197.402344 C 34.433594 197.792969 35.046875 198.121094 35.699219 198.390625 C 36.347656 198.660156 37.015625 198.863281 37.703125 199 C 38.394531 199.136719 39.089844 199.207031 39.792969 199.207031 Z M 39.792969 199.207031 " fill-opacity="1" fill-rule="nonzero"/><path fill="#ffffff" d="M 243.050781 263.394531 L 39.792969 263.394531 C 39.089844 263.394531 38.394531 263.460938 37.703125 263.597656 C 37.015625 263.734375 36.347656 263.9375 35.699219 264.207031 C 35.046875 264.476562 34.433594 264.804688 33.847656 265.195312 C 33.265625 265.585938 32.722656 266.03125 32.226562 266.527344 C 31.730469 267.023438 31.285156 267.5625 30.898438 268.148438 C 30.507812 268.730469 30.175781 269.347656 29.90625 269.996094 C 29.640625 270.644531 29.4375 271.316406 29.300781 272.003906 C 29.164062 272.691406 29.09375 273.386719 29.09375 274.089844 C 29.09375 274.792969 29.164062 275.488281 29.300781 276.175781 C 29.4375 276.867188 29.640625 277.535156 29.90625 278.183594 C 30.175781 278.832031 30.507812 279.449219 30.898438 280.035156 C 31.285156 280.617188 31.730469 281.160156 32.226562 281.65625 C 32.722656 282.152344 33.265625 282.59375 33.847656 282.984375 C 34.433594 283.375 35.046875 283.707031 35.699219 283.972656 C 36.347656 284.242188 37.015625 284.445312 37.703125 284.582031 C 38.394531 284.71875 39.089844 284.789062 39.792969 284.789062 L 243.050781 284.789062 C 243.753906 284.789062 244.449219 284.71875 245.140625 284.582031 C 245.828125 284.445312 246.496094 284.242188 247.144531 283.972656 C 247.796875 283.707031 248.410156 283.375 248.996094 282.984375 C 249.578125 282.59375 250.121094 282.152344 250.617188 281.65625 C 251.113281 281.160156 251.558594 280.617188 251.945312 280.035156 C 252.335938 279.449219 252.667969 278.832031 252.9375 278.183594 C 253.203125 277.535156 253.40625 276.867188 253.542969 276.175781 C 253.679688 275.488281 253.75 274.792969 253.75 274.089844 C 253.75 273.386719 253.679688 272.691406 253.542969 272.003906 C 253.40625 271.316406 253.203125 270.644531 252.9375 269.996094 C 252.667969 269.347656 252.335938 268.730469 251.945312 268.148438 C 251.558594 267.5625 251.113281 267.023438 250.617188 266.527344 C 250.121094 266.03125 249.578125 265.585938 248.996094 265.195312 C 248.410156 264.804688 247.796875 264.476562 247.144531 264.207031 C 246.496094 263.9375 245.828125 263.734375 245.140625 263.597656 C 244.449219 263.460938 243.753906 263.394531 243.050781 263.394531 Z M 243.050781 263.394531 " fill-opacity="1" fill-rule="nonzero"/><path fill="#ffffff" d="M 346.929688 116.722656 C 346.429688 116.222656 345.890625 115.773438 345.304688 115.382812 C 344.71875 114.988281 344.097656 114.652344 343.449219 114.382812 C 342.796875 114.109375 342.125 113.90625 341.429688 113.769531 C 340.738281 113.628906 340.039062 113.558594 339.332031 113.558594 C 338.628906 113.558594 337.929688 113.628906 337.234375 113.769531 C 336.542969 113.90625 335.871094 114.109375 335.21875 114.382812 C 334.566406 114.652344 333.949219 114.988281 333.363281 115.382812 C 332.777344 115.773438 332.234375 116.222656 331.738281 116.722656 L 267.550781 180.910156 C 267.050781 181.410156 266.601562 181.949219 266.207031 182.535156 C 265.8125 183.121094 265.480469 183.742188 265.207031 184.394531 C 264.9375 185.046875 264.730469 185.71875 264.59375 186.410156 C 264.457031 187.101562 264.386719 187.800781 264.386719 188.507812 C 264.386719 189.214844 264.457031 189.914062 264.59375 190.605469 C 264.730469 191.296875 264.9375 191.96875 265.207031 192.621094 C 265.480469 193.273438 265.8125 193.890625 266.207031 194.476562 C 266.601562 195.0625 267.050781 195.605469 267.550781 196.101562 L 331.738281 260.289062 C 332.234375 260.792969 332.777344 261.238281 333.363281 261.632812 C 333.949219 262.027344 334.566406 262.359375 335.21875 262.632812 C 335.871094 262.902344 336.542969 263.109375 337.234375 263.246094 C 337.929688 263.386719 338.628906 263.453125 339.332031 263.453125 C 340.039062 263.453125 340.738281 263.386719 341.429688 263.246094 C 342.125 263.109375 342.796875 262.902344 343.449219 262.632812 C 344.097656 262.359375 344.71875 262.027344 345.304688 261.632812 C 345.890625 261.238281 346.429688 260.792969 346.929688 260.289062 C 347.429688 259.792969 347.878906 259.25 348.273438 258.664062 C 348.667969 258.078125 349 257.460938 349.269531 256.808594 C 349.542969 256.15625 349.746094 255.484375 349.886719 254.792969 C 350.023438 254.101562 350.09375 253.402344 350.09375 252.695312 C 350.09375 251.988281 350.023438 251.289062 349.886719 250.597656 C 349.746094 249.90625 349.542969 249.234375 349.269531 248.582031 C 349 247.929688 348.667969 247.308594 348.273438 246.722656 C 347.878906 246.136719 347.429688 245.597656 346.929688 245.097656 L 290.230469 188.507812 L 346.929688 131.914062 C 347.429688 131.417969 347.878906 130.875 348.273438 130.289062 C 348.667969 129.703125 349 129.085938 349.269531 128.433594 C 349.542969 127.78125 349.746094 127.109375 349.886719 126.417969 C 350.023438 125.726562 350.09375 125.027344 350.09375 124.320312 C 350.09375 123.613281 350.023438 122.914062 349.886719 122.222656 C 349.746094 121.53125 349.542969 120.859375 349.269531 120.207031 C 349 119.554688 348.667969 118.933594 348.273438 118.347656 C 347.878906 117.761719 347.429688 117.222656 346.929688 116.722656 Z M 346.929688 116.722656 " fill-opacity="1" fill-rule="nonzero"/></svg>