<svg xmlns="http://www.w3.org/2000/svg" xmlns:xlink="http://www.w3.org/1999/xlink" width="500" zoomAndPan="magnify" viewBox="0 0 375 374.999991" height="500" preserveAspectRatio="xMidYMid meet" version="1.0"><path fill="#ffffff" d="M 304.417969 347.285156 L 69.308594 347.285156 C 47.949219 347.261719 30.632812 329.941406 30.605469 308.582031 L 30.605469 76.46875 C 30.628906 55.109375 47.949219 37.789062 69.308594 37.765625 L 148.421875 37.765625 C 162.820312 37.738281 176.046875 45.738281 182.707031 58.503906 L 204.554688 100.199219 L 304.421875 100.199219 C 325.78125 100.226562 343.101562 117.546875 343.128906 138.90625 L 343.128906 308.578125 C 343.101562 329.9375 325.78125 347.246094 304.421875 347.285156 Z M 69.308594 58.820312 C 59.570312 58.835938 51.675781 66.730469 51.660156 76.46875 L 51.660156 308.582031 C 51.675781 318.320312 59.570312 326.21875 69.308594 326.230469 L 304.417969 326.230469 C 314.160156 326.21875 322.054688 318.320312 322.070312 308.582031 L 322.070312 138.910156 C 322.054688 129.171875 314.160156 121.273438 304.417969 121.261719 L 198.171875 121.261719 C 194.261719 121.261719 190.667969 119.089844 188.851562 115.613281 L 164.042969 68.273438 C 161.015625 62.457031 154.988281 58.808594 148.421875 58.824219 Z M 158.386719 301.132812 L 95.871094 301.132812 C 90.117188 301.050781 85.484375 296.367188 85.484375 290.601562 C 85.484375 284.851562 90.117188 280.164062 95.871094 280.074219 L 158.386719 280.074219 C 164.136719 280.164062 168.769531 284.851562 168.769531 290.601562 C 168.769531 296.367188 164.136719 301.050781 158.386719 301.132812 Z M 158.386719 256.578125 L 95.871094 256.578125 C 90.117188 256.5 85.484375 251.816406 85.484375 246.050781 C 85.484375 240.300781 90.117188 235.601562 95.871094 235.523438 L 158.386719 235.523438 C 164.152344 235.601562 168.769531 240.285156 168.769531 246.050781 C 168.769531 251.816406 164.152344 256.5 158.386719 256.578125 Z M 158.386719 256.578125 " fill-opacity="1" fill-rule="nonzero"/></svg>