<svg xmlns="http://www.w3.org/2000/svg" xmlns:xlink="http://www.w3.org/1999/xlink" width="500" zoomAndPan="magnify" viewBox="0 0 375 374.999991" height="500" preserveAspectRatio="xMidYMid meet" version="1.0"><path fill="#ffffff" d="M 286.378906 282.839844 L 218.460938 251.414062 C 206.621094 245.945312 196.359375 257.550781 189.386719 265.707031 C 189.164062 266.019531 188.890625 266.28125 188.570312 266.488281 C 188.25 266.699219 187.902344 266.84375 187.53125 266.921875 C 187.15625 267 186.777344 267.007812 186.402344 266.941406 C 186.023438 266.878906 185.671875 266.75 185.34375 266.550781 C 180.535156 262.996094 175.929688 259.199219 171.527344 255.152344 C 167.121094 251.105469 162.945312 246.839844 158.996094 242.347656 C 155.046875 237.859375 151.347656 233.171875 147.898438 228.289062 C 144.445312 223.402344 141.265625 218.351562 138.351562 213.128906 C 135.441406 207.90625 132.8125 202.542969 130.472656 197.039062 C 128.132812 191.539062 126.089844 185.925781 124.34375 180.207031 C 122.601562 174.484375 121.167969 168.691406 120.039062 162.816406 C 118.914062 156.945312 118.101562 151.027344 117.605469 145.070312 C 117.601562 144.6875 117.671875 144.316406 117.8125 143.960938 C 117.953125 143.605469 118.15625 143.292969 118.421875 143.015625 C 118.6875 142.738281 118.996094 142.523438 119.34375 142.367188 C 119.691406 142.210938 120.058594 142.125 120.441406 142.113281 C 131.019531 140.394531 146.277344 137.847656 147.886719 124.863281 L 156.8125 50.550781 C 158.0625 36.042969 141.460938 30.121094 130.152344 26.058594 C 128.285156 25.53125 126.394531 25.097656 124.480469 24.757812 C 122.570312 24.417969 120.648438 24.167969 118.710938 24.015625 C 116.777344 23.863281 114.835938 23.804688 112.894531 23.84375 C 110.957031 23.878906 109.019531 24.011719 107.09375 24.238281 C 105.164062 24.464844 103.25 24.785156 101.355469 25.199219 C 99.457031 25.613281 97.585938 26.117188 95.738281 26.714844 C 93.890625 27.3125 92.074219 27.996094 90.296875 28.773438 C 88.515625 29.546875 86.777344 30.40625 85.082031 31.351562 C 83.382812 32.296875 81.738281 33.324219 80.144531 34.429688 C 78.546875 35.535156 77.007812 36.71875 75.53125 37.972656 C 74.050781 39.230469 72.636719 40.558594 71.285156 41.953125 C 69.933594 43.347656 68.65625 44.804688 67.449219 46.328125 C 66.242188 47.847656 65.113281 49.425781 64.058594 51.054688 C 63.007812 52.6875 62.035156 54.367188 61.148438 56.09375 C 60.257812 57.820312 59.457031 59.585938 58.742188 61.390625 C 58.027344 63.195312 57.398438 65.03125 56.863281 66.894531 C 55.808594 70.625 54.839844 74.375 53.96875 78.148438 C 53.09375 81.921875 52.3125 85.714844 51.625 89.527344 C 50.9375 93.34375 50.34375 97.167969 49.84375 101.011719 C 49.34375 104.851562 48.941406 108.703125 48.628906 112.566406 C 48.320312 116.429688 48.101562 120.296875 47.984375 124.167969 C 47.863281 128.039062 47.835938 131.914062 47.90625 135.785156 C 47.976562 139.660156 48.140625 143.53125 48.398438 147.394531 C 48.65625 151.261719 49.011719 155.117188 49.460938 158.964844 C 49.910156 162.816406 50.453125 166.648438 51.089844 170.472656 C 51.726562 174.292969 52.453125 178.097656 53.277344 181.882812 C 54.101562 185.667969 55.019531 189.429688 56.027344 193.171875 C 57.035156 196.914062 58.132812 200.625 59.324219 204.3125 C 60.515625 208 61.792969 211.65625 63.164062 215.28125 C 64.535156 218.902344 65.992188 222.492188 67.539062 226.042969 C 69.085938 229.597656 70.714844 233.109375 72.433594 236.582031 C 74.152344 240.054688 75.957031 243.480469 77.84375 246.867188 C 79.730469 250.25 81.699219 253.585938 83.746094 256.871094 C 85.796875 260.160156 87.929688 263.394531 90.136719 266.578125 C 92.347656 269.757812 94.632812 272.886719 96.996094 275.957031 C 99.359375 279.027344 101.792969 282.039062 104.304688 284.988281 C 106.816406 287.941406 109.394531 290.828125 112.046875 293.652344 C 114.699219 296.476562 117.421875 299.234375 120.207031 301.925781 C 122.996094 304.613281 125.847656 307.234375 128.761719 309.785156 C 131.679688 312.335938 134.65625 314.816406 137.695312 317.21875 C 140.730469 319.625 143.824219 321.953125 146.976562 324.207031 C 150.128906 326.457031 153.335938 328.632812 156.59375 330.726562 C 159.851562 332.824219 163.160156 334.835938 166.519531 336.769531 C 169.875 338.703125 173.277344 340.554688 176.726562 342.320312 C 180.175781 344.085938 183.664062 345.765625 187.195312 347.359375 C 190.726562 348.953125 194.292969 350.460938 197.898438 351.882812 C 201.503906 353.300781 205.140625 354.632812 208.8125 355.871094 C 212.480469 357.113281 216.179688 358.265625 219.90625 359.324219 C 221.777344 359.847656 223.667969 360.277344 225.578125 360.613281 C 227.492188 360.953125 229.414062 361.195312 231.351562 361.34375 C 233.285156 361.496094 235.226562 361.550781 237.167969 361.507812 C 239.109375 361.46875 241.042969 361.335938 242.96875 361.105469 C 244.898438 360.878906 246.808594 360.554688 248.707031 360.136719 C 250.601562 359.722656 252.476562 359.214844 254.320312 358.617188 C 256.167969 358.015625 257.980469 357.328125 259.761719 356.554688 C 261.539062 355.777344 263.277344 354.914062 264.972656 353.96875 C 266.667969 353.023438 268.316406 351.996094 269.910156 350.890625 C 271.503906 349.785156 273.042969 348.601562 274.519531 347.34375 C 276 346.085938 277.414062 344.761719 278.765625 343.363281 C 280.117188 341.96875 281.394531 340.511719 282.601562 338.992188 C 283.808594 337.46875 284.9375 335.894531 285.992188 334.261719 C 287.046875 332.632812 288.015625 330.953125 288.90625 329.226562 C 289.792969 327.5 290.597656 325.738281 291.3125 323.933594 C 292.03125 322.128906 292.65625 320.292969 293.195312 318.425781 C 295.773438 306.605469 299.339844 289.378906 286.378906 282.839844 Z M 286.378906 282.839844 " fill-opacity="1" fill-rule="nonzero"/><path fill="#ffffff" d="M 221.734375 105.429688 C 224.300781 105.921875 226.835938 106.546875 229.335938 107.300781 C 231.839844 108.058594 234.296875 108.941406 236.707031 109.953125 C 239.117188 110.964844 241.46875 112.097656 243.761719 113.351562 C 246.054688 114.609375 248.277344 115.976562 250.425781 117.464844 C 252.574219 118.949219 254.644531 120.542969 256.628906 122.246094 C 258.613281 123.945312 260.503906 125.746094 262.300781 127.644531 C 264.097656 129.542969 265.792969 131.527344 267.386719 133.601562 C 268.976562 135.675781 270.457031 137.824219 271.824219 140.054688 C 273.117188 142.324219 274.292969 144.65625 275.347656 147.046875 C 276.398438 149.441406 277.324219 151.878906 278.125 154.367188 C 278.925781 156.859375 279.59375 159.382812 280.128906 161.9375 C 280.667969 164.496094 281.070312 167.074219 281.339844 169.675781 C 281.609375 172.277344 281.742188 174.882812 281.738281 177.496094 C 281.738281 180.109375 281.601562 182.71875 281.328125 185.316406 C 281.054688 187.917969 280.648438 190.496094 280.109375 193.050781 C 279.570312 195.609375 278.898438 198.132812 278.09375 200.621094 C 277.976562 200.992188 277.894531 201.375 277.847656 201.761719 C 277.804688 202.152344 277.796875 202.539062 277.828125 202.929688 C 277.859375 203.320312 277.925781 203.703125 278.03125 204.078125 C 278.136719 204.457031 278.28125 204.820312 278.457031 205.167969 C 278.632812 205.519531 278.839844 205.847656 279.082031 206.15625 C 279.320312 206.464844 279.589844 206.746094 279.882812 207.003906 C 280.179688 207.261719 280.496094 207.488281 280.835938 207.683594 C 281.175781 207.878906 281.527344 208.039062 281.898438 208.164062 C 282.269531 208.289062 282.648438 208.378906 283.035156 208.429688 C 283.425781 208.484375 283.8125 208.5 284.203125 208.476562 C 284.59375 208.453125 284.980469 208.390625 285.355469 208.292969 C 285.734375 208.195312 286.101562 208.0625 286.453125 207.890625 C 286.808594 207.722656 287.140625 207.519531 287.453125 207.285156 C 287.765625 207.050781 288.054688 206.789062 288.316406 206.5 C 288.578125 206.210938 288.8125 205.898438 289.015625 205.5625 C 289.214844 205.226562 289.382812 204.875 289.515625 204.507812 C 289.996094 203.0625 290.441406 201.605469 290.84375 200.136719 C 291.246094 198.667969 291.609375 197.191406 291.933594 195.703125 C 292.257812 194.214844 292.542969 192.71875 292.785156 191.214844 C 293.03125 189.710938 293.234375 188.203125 293.398438 186.6875 C 293.5625 185.175781 293.683594 183.65625 293.765625 182.136719 C 293.847656 180.617188 293.890625 179.09375 293.890625 177.570312 C 293.890625 176.046875 293.851562 174.527344 293.769531 173.007812 C 293.6875 171.484375 293.566406 169.96875 293.40625 168.453125 C 293.242188 166.9375 293.042969 165.429688 292.796875 163.925781 C 292.554688 162.421875 292.273438 160.925781 291.949219 159.4375 C 291.628906 157.949219 291.265625 156.472656 290.863281 155.003906 C 290.460938 153.535156 290.019531 152.078125 289.539062 150.632812 C 289.0625 149.1875 288.542969 147.753906 287.984375 146.335938 C 287.429688 144.917969 286.835938 143.519531 286.203125 142.132812 C 285.574219 140.746094 284.902344 139.378906 284.199219 138.027344 C 283.496094 136.679688 282.753906 135.347656 281.976562 134.039062 C 281.203125 132.726562 280.390625 131.4375 279.546875 130.171875 C 278.703125 128.90625 277.824219 127.660156 276.914062 126.441406 C 276 125.222656 275.058594 124.027344 274.082031 122.855469 C 273.105469 121.6875 272.101562 120.542969 271.0625 119.429688 C 270.027344 118.3125 268.960938 117.226562 267.867188 116.167969 C 266.773438 115.109375 265.648438 114.078125 264.5 113.082031 C 263.351562 112.082031 262.175781 111.117188 260.972656 110.179688 C 259.769531 109.246094 258.546875 108.339844 257.296875 107.472656 C 256.046875 106.601562 254.773438 105.765625 253.480469 104.964844 C 252.183594 104.160156 250.867188 103.394531 249.535156 102.664062 C 248.199219 101.929688 246.84375 101.234375 245.46875 100.578125 C 244.097656 99.917969 242.707031 99.296875 241.300781 98.710938 C 239.894531 98.125 238.476562 97.578125 237.039062 97.070312 C 235.605469 96.5625 234.15625 96.09375 232.695312 95.660156 C 231.234375 95.230469 229.761719 94.839844 228.28125 94.484375 C 226.800781 94.132812 225.308594 93.820312 223.8125 93.546875 C 223.425781 93.488281 223.039062 93.464844 222.648438 93.484375 C 222.257812 93.5 221.871094 93.550781 221.492188 93.644531 C 221.109375 93.734375 220.742188 93.859375 220.386719 94.023438 C 220.03125 94.183594 219.695312 94.378906 219.378906 94.609375 C 219.058594 94.835938 218.765625 95.09375 218.5 95.378906 C 218.230469 95.664062 217.992188 95.96875 217.785156 96.300781 C 217.578125 96.632812 217.402344 96.980469 217.261719 97.34375 C 217.121094 97.710938 217.019531 98.085938 216.953125 98.46875 C 216.882812 98.855469 216.855469 99.242188 216.863281 99.632812 C 216.871094 100.023438 216.917969 100.410156 217 100.792969 C 217.082031 101.175781 217.203125 101.546875 217.355469 101.902344 C 217.511719 102.261719 217.699219 102.601562 217.921875 102.925781 C 218.144531 103.246094 218.394531 103.546875 218.671875 103.820312 C 218.953125 104.09375 219.253906 104.335938 219.582031 104.550781 C 219.910156 104.765625 220.253906 104.945312 220.613281 105.09375 C 220.976562 105.242188 221.351562 105.351562 221.734375 105.429688 Z M 221.734375 105.429688 " fill-opacity="1" fill-rule="nonzero"/><path fill="#ffffff" d="M 192.132812 146.019531 C 192.957031 146.164062 193.777344 146.332031 194.589844 146.519531 C 195.40625 146.707031 196.214844 146.917969 197.019531 147.148438 C 197.820312 147.382812 198.617188 147.636719 199.410156 147.910156 C 200.199219 148.1875 200.980469 148.480469 201.753906 148.800781 C 202.527344 149.117188 203.292969 149.453125 204.046875 149.8125 C 204.804688 150.171875 205.546875 150.550781 206.285156 150.949219 C 207.019531 151.347656 207.742188 151.765625 208.453125 152.203125 C 209.167969 152.640625 209.867188 153.097656 210.554688 153.574219 C 211.242188 154.050781 211.917969 154.542969 212.578125 155.054688 C 213.242188 155.566406 213.886719 156.097656 214.519531 156.640625 C 215.152344 157.1875 215.769531 157.753906 216.375 158.332031 C 216.976562 158.914062 217.5625 159.507812 218.132812 160.121094 C 218.703125 160.730469 219.253906 161.359375 219.792969 162 C 220.328125 162.640625 220.847656 163.296875 221.347656 163.96875 C 221.847656 164.636719 222.332031 165.320312 222.796875 166.015625 C 223.261719 166.710938 223.707031 167.417969 224.132812 168.136719 C 224.558594 168.855469 224.964844 169.585938 225.351562 170.328125 C 225.738281 171.070312 226.105469 171.820312 226.449219 172.582031 C 226.796875 173.34375 227.121094 174.113281 227.425781 174.894531 C 227.730469 175.671875 228.015625 176.457031 228.277344 177.253906 C 228.539062 178.046875 228.78125 178.847656 229 179.65625 C 229.21875 180.460938 229.414062 181.273438 229.589844 182.089844 C 229.765625 182.910156 229.917969 183.730469 230.050781 184.558594 C 230.179688 185.382812 230.289062 186.210938 230.375 187.042969 C 230.460938 187.875 230.523438 188.710938 230.566406 189.542969 C 230.605469 190.378906 230.625 191.214844 230.621094 192.050781 C 230.617188 192.886719 230.589844 193.722656 230.542969 194.558594 C 230.492188 195.394531 230.421875 196.226562 230.328125 197.058594 C 230.234375 197.886719 230.117188 198.714844 229.980469 199.539062 C 229.839844 200.367188 229.679688 201.1875 229.496094 202.003906 C 229.316406 202.816406 229.109375 203.628906 228.882812 204.433594 C 228.65625 205.238281 228.410156 206.035156 228.140625 206.828125 C 228.011719 207.203125 227.921875 207.585938 227.871094 207.980469 C 227.816406 208.371094 227.804688 208.765625 227.828125 209.160156 C 227.855469 209.554688 227.917969 209.945312 228.019531 210.328125 C 228.121094 210.710938 228.261719 211.078125 228.433594 211.433594 C 228.609375 211.789062 228.816406 212.125 229.058594 212.441406 C 229.296875 212.753906 229.566406 213.042969 229.863281 213.304688 C 230.160156 213.566406 230.480469 213.796875 230.824219 213.992188 C 231.167969 214.191406 231.527344 214.355469 231.902344 214.484375 C 232.277344 214.609375 232.660156 214.703125 233.050781 214.753906 C 233.445312 214.804688 233.839844 214.820312 234.234375 214.792969 C 234.628906 214.769531 235.015625 214.703125 235.398438 214.601562 C 235.78125 214.5 236.152344 214.363281 236.507812 214.1875 C 236.863281 214.011719 237.199219 213.804688 237.511719 213.566406 C 237.828125 213.324219 238.113281 213.054688 238.375 212.757812 C 238.636719 212.460938 238.867188 212.140625 239.066406 211.796875 C 239.265625 211.457031 239.425781 211.097656 239.554688 210.722656 C 240.203125 208.722656 240.742188 206.691406 241.179688 204.632812 C 241.613281 202.578125 241.941406 200.5 242.160156 198.410156 C 242.382812 196.320312 242.492188 194.222656 242.492188 192.117188 C 242.496094 190.015625 242.386719 187.917969 242.171875 185.824219 C 241.953125 183.734375 241.628906 181.660156 241.199219 179.601562 C 240.765625 177.542969 240.226562 175.511719 239.582031 173.507812 C 238.941406 171.507812 238.195312 169.542969 237.347656 167.621094 C 236.5 165.695312 235.554688 163.820312 234.511719 161.992188 C 233.421875 160.191406 232.242188 158.449219 230.96875 156.773438 C 229.699219 155.097656 228.339844 153.492188 226.898438 151.957031 C 225.457031 150.421875 223.9375 148.96875 222.34375 147.597656 C 220.746094 146.222656 219.082031 144.9375 217.351562 143.742188 C 215.617188 142.542969 213.828125 141.441406 211.980469 140.433594 C 210.132812 139.425781 208.234375 138.519531 206.292969 137.714844 C 204.347656 136.90625 202.367188 136.203125 200.347656 135.605469 C 198.328125 135.007812 196.285156 134.519531 194.214844 134.140625 C 193.828125 134.082031 193.4375 134.058594 193.046875 134.074219 C 192.65625 134.089844 192.273438 134.144531 191.894531 134.234375 C 191.511719 134.328125 191.144531 134.453125 190.789062 134.617188 C 190.433594 134.777344 190.097656 134.972656 189.78125 135.203125 C 189.464844 135.429688 189.171875 135.6875 188.902344 135.972656 C 188.636719 136.253906 188.398438 136.5625 188.191406 136.894531 C 187.984375 137.226562 187.808594 137.574219 187.667969 137.9375 C 187.527344 138.300781 187.425781 138.675781 187.359375 139.0625 C 187.289062 139.445312 187.261719 139.835938 187.269531 140.226562 C 187.277344 140.617188 187.324219 141 187.40625 141.382812 C 187.488281 141.765625 187.605469 142.136719 187.761719 142.496094 C 187.917969 142.851562 188.105469 143.191406 188.328125 143.515625 C 188.546875 143.835938 188.796875 144.136719 189.078125 144.410156 C 189.355469 144.683594 189.65625 144.925781 189.984375 145.140625 C 190.3125 145.355469 190.65625 145.539062 191.015625 145.683594 C 191.378906 145.832031 191.75 145.945312 192.132812 146.019531 Z M 192.132812 146.019531 " fill-opacity="1" fill-rule="nonzero"/><path fill="#ffffff" d="M 326.167969 101.65625 C 321.953125 94.179688 317.1875 87.074219 311.867188 80.339844 C 306.550781 73.601562 300.742188 67.316406 294.449219 61.480469 C 288.15625 55.644531 281.453125 50.328125 274.335938 45.53125 C 267.21875 40.734375 259.773438 36.515625 252.003906 32.875 C 251.636719 32.730469 251.261719 32.625 250.878906 32.554688 C 250.492188 32.488281 250.105469 32.453125 249.714844 32.460938 C 249.324219 32.464844 248.9375 32.507812 248.554688 32.589844 C 248.171875 32.671875 247.800781 32.789062 247.441406 32.941406 C 247.078125 33.09375 246.738281 33.28125 246.414062 33.5 C 246.089844 33.71875 245.792969 33.96875 245.515625 34.246094 C 245.242188 34.523438 244.996094 34.828125 244.777344 35.152344 C 244.5625 35.476562 244.378906 35.820312 244.230469 36.183594 C 244.078125 36.542969 243.964844 36.917969 243.886719 37.300781 C 243.8125 37.683594 243.773438 38.070312 243.769531 38.460938 C 243.769531 38.855469 243.804688 39.242188 243.875 39.625 C 243.949219 40.007812 244.058594 40.382812 244.207031 40.746094 C 244.351562 41.109375 244.53125 41.453125 244.746094 41.78125 C 244.957031 42.109375 245.203125 42.414062 245.472656 42.695312 C 245.746094 42.976562 246.042969 43.226562 246.363281 43.449219 C 246.6875 43.671875 247.027344 43.863281 247.382812 44.019531 C 300.984375 66.023438 345.273438 141.445312 338.824219 198.453125 C 338.789062 198.84375 338.789062 199.234375 338.828125 199.625 C 338.871094 200.015625 338.945312 200.398438 339.0625 200.773438 C 339.175781 201.148438 339.324219 201.507812 339.507812 201.855469 C 339.695312 202.199219 339.910156 202.523438 340.160156 202.828125 C 340.40625 203.132812 340.683594 203.410156 340.984375 203.660156 C 341.285156 203.910156 341.609375 204.128906 341.957031 204.316406 C 342.300781 204.503906 342.660156 204.65625 343.035156 204.769531 C 343.410156 204.886719 343.792969 204.96875 344.179688 205.011719 C 344.570312 205.050781 344.960938 205.054688 345.351562 205.023438 C 345.742188 204.988281 346.125 204.917969 346.503906 204.808594 C 346.878906 204.699219 347.242188 204.554688 347.59375 204.375 C 347.941406 204.195312 348.269531 203.984375 348.578125 203.742188 C 348.882812 203.5 349.164062 203.226562 349.421875 202.929688 C 349.675781 202.628906 349.898438 202.308594 350.089844 201.96875 C 350.28125 201.625 350.441406 201.269531 350.5625 200.894531 C 350.683594 200.523438 350.769531 200.144531 350.820312 199.753906 C 352.035156 188.558594 353.847656 148.398438 326.167969 101.65625 Z M 326.167969 101.65625 " fill-opacity="1" fill-rule="nonzero"/></svg>