<svg xmlns="http://www.w3.org/2000/svg" xmlns:xlink="http://www.w3.org/1999/xlink" width="500" zoomAndPan="magnify" viewBox="0 0 375 374.999991" height="500" preserveAspectRatio="xMidYMid meet" version="1.0"><defs><clipPath id="9f55988dba"><path d="M 18.113281 163 L 360.113281 163 L 360.113281 356.921875 L 18.113281 356.921875 Z M 18.113281 163 " clip-rule="nonzero"/></clipPath><clipPath id="19c8925537"><path d="M 18.113281 14.921875 L 360.113281 14.921875 L 360.113281 198 L 18.113281 198 Z M 18.113281 14.921875 " clip-rule="nonzero"/></clipPath></defs><g clip-path="url(#9f55988dba)"><path fill="#ffffff" d="M 348.667969 339.777344 C 348.667969 342.914062 346.109375 345.476562 342.96875 345.476562 L 35.210938 345.476562 C 32.074219 345.476562 29.511719 342.914062 29.511719 339.777344 L 29.511719 294.183594 C 29.511719 291.042969 32.074219 288.484375 35.210938 288.484375 L 120.699219 288.484375 C 126.980469 288.484375 132.097656 283.363281 132.097656 277.085938 L 132.097656 237.191406 C 132.097656 234.050781 134.660156 231.492188 137.796875 231.492188 L 234.683594 231.492188 C 240.964844 231.492188 246.082031 226.371094 246.082031 220.09375 L 246.082031 180.199219 C 246.082031 177.058594 248.644531 174.5 251.78125 174.5 L 342.96875 174.5 C 346.109375 174.5 348.667969 177.058594 348.667969 180.199219 Z M 342.96875 163.101562 L 251.78125 163.101562 C 242.34375 163.101562 234.683594 170.757812 234.683594 180.199219 L 234.683594 220.09375 L 137.796875 220.09375 C 128.359375 220.09375 120.699219 227.75 120.699219 237.191406 L 120.699219 277.085938 L 35.210938 277.085938 C 25.773438 277.085938 18.113281 284.742188 18.113281 294.183594 L 18.113281 339.777344 C 18.113281 349.214844 25.773438 356.875 35.210938 356.875 L 342.96875 356.875 C 352.410156 356.875 360.066406 349.214844 360.066406 339.777344 L 360.066406 180.199219 C 360.066406 170.757812 352.410156 163.101562 342.96875 163.101562 " fill-opacity="1" fill-rule="nonzero"/></g><g clip-path="url(#19c8925537)"><path fill="#ffffff" d="M 348.667969 71.914062 C 348.667969 75.050781 346.109375 77.613281 342.96875 77.613281 C 339.832031 77.613281 337.269531 75.050781 337.269531 71.914062 L 337.269531 59.492188 C 337.269531 57.175781 335.890625 55.105469 333.753906 54.238281 C 331.617188 53.347656 329.167969 53.835938 327.542969 55.460938 L 267.167969 115.835938 C 266.097656 116.929688 264.695312 117.527344 263.179688 117.527344 C 261.691406 117.527344 260.265625 116.929688 259.175781 115.816406 L 244.414062 101.097656 C 242.1875 98.875 238.582031 98.894531 236.355469 101.097656 L 175.980469 161.429688 C 173.839844 163.613281 170.191406 163.636719 167.988281 161.410156 L 119.054688 112.496094 C 116.828125 110.273438 113.199219 110.273438 110.972656 112.496094 L 39.242188 184.207031 C 37.0625 186.386719 33.433594 186.410156 31.207031 184.183594 C 30.113281 183.113281 29.511719 181.691406 29.511719 180.199219 C 29.511719 178.707031 30.113281 177.28125 31.226562 176.191406 L 111.039062 96.378906 C 112.109375 95.289062 113.511719 94.6875 115.023438 94.6875 C 116.515625 94.6875 117.917969 95.289062 119.03125 96.402344 L 167.964844 145.3125 C 170.191406 147.539062 173.796875 147.539062 176.023438 145.3125 L 236.398438 84.980469 C 238.535156 82.800781 242.210938 82.777344 244.414062 85.003906 L 259.152344 99.71875 C 261.378906 101.945312 264.984375 101.921875 267.210938 99.71875 L 319.527344 47.445312 C 321.152344 45.820312 321.664062 43.371094 320.773438 41.234375 C 319.882812 39.097656 317.8125 37.71875 315.5 37.71875 L 303.074219 37.71875 C 299.9375 37.71875 297.375 35.15625 297.375 32.019531 C 297.375 28.878906 299.9375 26.320312 303.074219 26.320312 L 342.96875 26.320312 C 346.109375 26.320312 348.667969 28.878906 348.667969 32.019531 Z M 342.96875 14.921875 L 303.074219 14.921875 C 293.636719 14.921875 285.976562 22.578125 285.976562 32.019531 C 285.976562 41.011719 292.945312 48.402344 301.785156 49.070312 L 263.179688 87.628906 L 252.472656 76.964844 C 246.015625 70.421875 234.730469 70.445312 228.316406 76.945312 L 171.992188 133.222656 L 127.113281 88.363281 C 120.632812 81.820312 109.371094 81.84375 102.957031 88.34375 L 23.191406 168.109375 C 19.917969 171.335938 18.113281 175.632812 18.113281 180.199219 C 18.113281 184.761719 19.917969 189.058594 23.167969 192.265625 C 26.417969 195.515625 30.695312 197.296875 35.210938 197.296875 C 39.753906 197.296875 44.050781 195.515625 47.277344 192.265625 L 115.023438 124.585938 L 159.90625 169.445312 C 166.363281 175.992188 177.648438 175.96875 184.058594 169.46875 L 240.40625 113.1875 L 251.09375 123.851562 C 254.320312 127.125 258.617188 128.925781 263.179688 128.925781 L 263.203125 128.925781 C 267.746094 128.925781 272.042969 127.125 275.246094 123.875 L 325.917969 73.203125 C 326.585938 82.042969 333.976562 89.011719 342.96875 89.011719 C 352.410156 89.011719 360.066406 81.351562 360.066406 71.914062 L 360.066406 32.019531 C 360.066406 22.578125 352.410156 14.921875 342.96875 14.921875 " fill-opacity="1" fill-rule="nonzero"/></g></svg>