<svg xmlns="http://www.w3.org/2000/svg" viewBox="0 0 24 24" fill="none" stroke="currentColor" stroke-width="1.8" stroke-linecap="round" stroke-linejoin="round">
  <circle cx="12" cy="12" r="3.2" />
  <path d="M19 12.7a7 7 0 000-1.4l2-1.5a.6.6 0 00.1-.8l-1.9-3.3a.6.6 0 00-.8-.2l-2.4 1a6.7 6.7 0 00-1.2-.7l-.4-2.6a.6.6 0 00-.6-.5h-3.8a.6.6 0 00-.6.5l-.4 2.6a6.7 6.7 0 00-1.2.7l-2.4-1a.6.6 0 00-.8.2L2.9 9a.6.6 0 00.1.8l2 1.5a7 7 0 000 1.4l-2 1.5a.6.6 0 00-.1.8l1.9 3.3a.6.6 0 00.8.2l2.4-1c.4.3.8.5 1.2.7l.4 2.6a.6.6 0 00.6.5h3.8a.6.6 0 00.6-.5l.4-2.6c.4-.2.8-.4 1.2-.7l2.4 1a.6.6 0 00.8-.2l1.9-3.3a.6.6 0 00-.1-.8z" />
</svg>
