<svg xmlns="http://www.w3.org/2000/svg" xmlns:xlink="http://www.w3.org/1999/xlink" width="500" zoomAndPan="magnify" viewBox="0 0 375 374.999991" height="500" preserveAspectRatio="xMidYMid meet" version="1.0"><defs><clipPath id="cb25b92edc"><path d="M 12.449219 19.363281 L 355 19.363281 L 355 362 L 12.449219 362 Z M 12.449219 19.363281 " clip-rule="nonzero"/></clipPath></defs><g clip-path="url(#cb25b92edc)"><path fill="#ffffff" d="M 183.746094 361.867188 C 165.714844 361.867188 149.464844 352.605469 140.273438 337.09375 C 134.3125 327.035156 122.238281 322.03125 110.914062 324.929688 L 110.890625 324.9375 C 106.664062 326.015625 102.402344 326.546875 98.191406 326.546875 C 85.007812 326.546875 72.3125 321.367188 62.652344 311.707031 C 49.902344 298.957031 44.960938 280.917969 49.429688 263.453125 C 49.433594 263.441406 49.433594 263.433594 49.4375 263.425781 C 52.320312 252.105469 47.320312 240.046875 37.269531 234.089844 C 21.757812 224.898438 12.496094 208.644531 12.496094 190.617188 C 12.496094 172.585938 21.757812 156.332031 37.269531 147.140625 C 47.324219 141.183594 52.324219 129.121094 49.433594 117.800781 C 49.433594 117.792969 49.429688 117.785156 49.429688 117.78125 C 44.960938 100.3125 49.902344 82.273438 62.652344 69.523438 C 75.398438 56.777344 93.433594 51.832031 110.898438 56.296875 C 110.902344 56.296875 110.90625 56.296875 110.910156 56.300781 C 122.234375 59.199219 134.3125 54.195312 140.269531 44.140625 C 149.460938 28.625 165.714844 19.367188 183.742188 19.367188 C 201.773438 19.367188 218.027344 28.625 227.21875 44.140625 C 233.175781 54.195312 245.25 59.199219 256.578125 56.300781 L 256.585938 56.300781 C 269.375 53.027344 282.667969 54.792969 294.019531 61.265625 L 282.113281 82.148438 C 277.933594 79.761719 271.148438 77.386719 262.539062 79.585938 C 262.527344 79.589844 262.519531 79.589844 262.511719 79.59375 C 251.847656 82.316406 240.839844 81.53125 230.675781 77.320312 C 220.5 73.105469 212.152344 65.871094 206.539062 56.394531 C 201.71875 48.261719 193.199219 43.40625 183.746094 43.40625 C 174.292969 43.40625 165.769531 48.261719 160.953125 56.394531 C 155.339844 65.871094 146.992188 73.105469 136.816406 77.320312 C 130.613281 79.890625 124.09375 81.1875 117.53125 81.1875 C 113.34375 81.1875 109.136719 80.660156 104.984375 79.597656 C 104.972656 79.59375 104.960938 79.589844 104.953125 79.589844 C 95.792969 77.246094 86.335938 79.835938 79.652344 86.523438 C 72.972656 93.203125 70.378906 102.65625 72.714844 111.808594 C 72.714844 111.8125 72.71875 111.820312 72.71875 111.824219 C 75.449219 122.496094 74.664062 133.511719 70.449219 143.6875 C 66.234375 153.863281 59 162.207031 49.523438 167.824219 C 41.390625 172.644531 36.535156 181.164062 36.535156 190.617188 C 36.535156 200.070312 41.390625 208.589844 49.523438 213.40625 C 59 219.023438 66.238281 227.367188 70.453125 237.542969 C 74.667969 247.71875 75.453125 258.738281 72.722656 269.40625 C 72.722656 269.410156 72.71875 269.414062 72.71875 269.417969 C 70.378906 278.574219 72.972656 288.023438 79.65625 294.707031 C 86.339844 301.390625 95.796875 303.984375 104.953125 301.640625 C 104.960938 301.640625 104.96875 301.636719 104.976562 301.632812 C 115.636719 298.910156 126.648438 299.695312 136.820312 303.90625 C 146.996094 308.121094 155.339844 315.359375 160.957031 324.832031 C 165.773438 332.964844 174.292969 337.820312 183.746094 337.820312 C 193.199219 337.820312 201.722656 332.964844 206.539062 324.832031 C 212.15625 315.359375 220.5 308.121094 230.675781 303.90625 C 240.84375 299.695312 251.851562 298.90625 262.511719 301.628906 C 262.519531 301.628906 262.53125 301.632812 262.539062 301.636719 C 271.699219 303.980469 281.160156 301.386719 287.839844 294.703125 C 294.527344 288.019531 297.117188 278.558594 294.773438 269.402344 C 294.773438 269.394531 294.769531 269.386719 294.769531 269.378906 C 292.046875 258.714844 292.832031 247.707031 297.042969 237.539062 C 301.257812 227.363281 308.492188 219.015625 317.96875 213.402344 C 325.199219 209.117188 329.738281 202.199219 330.753906 193.921875 C 331.773438 185.625 329.027344 177.578125 323.226562 171.851562 L 340.113281 154.746094 C 345.664062 160.226562 349.910156 167.054688 352.386719 174.484375 C 354.761719 181.617188 355.53125 189.347656 354.613281 196.84375 C 352.699219 212.457031 343.808594 226.03125 330.21875 234.082031 C 320.164062 240.039062 315.160156 252.113281 318.058594 263.441406 C 318.058594 263.445312 318.058594 263.445312 318.0625 263.453125 C 322.527344 280.914062 317.582031 298.953125 304.835938 311.699219 C 292.089844 324.445312 274.054688 329.390625 256.589844 324.925781 C 256.585938 324.925781 256.582031 324.925781 256.578125 324.921875 C 245.25 322.023438 233.175781 327.027344 227.21875 337.085938 C 218.027344 352.597656 201.773438 361.859375 183.742188 361.859375 Z M 183.746094 361.867188 " fill-opacity="1" fill-rule="nonzero"/></g><path fill="#ffffff" d="M 182.089844 287.507812 C 179.015625 287.507812 175.9375 286.332031 173.589844 283.988281 L 87.113281 197.507812 C 84.859375 195.253906 83.59375 192.199219 83.59375 189.007812 C 83.59375 185.820312 84.859375 182.765625 87.113281 180.507812 L 121.214844 146.40625 C 125.910156 141.710938 133.519531 141.710938 138.214844 146.40625 L 182.089844 190.28125 L 300.367188 72 C 302.621094 69.746094 305.679688 68.480469 308.867188 68.480469 C 312.058594 68.480469 315.113281 69.746094 317.367188 72 L 351.472656 106.105469 C 356.164062 110.796875 356.164062 118.410156 351.472656 123.101562 L 190.589844 283.984375 C 188.242188 286.332031 185.164062 287.503906 182.089844 287.503906 Z M 112.609375 189.007812 L 182.09375 258.488281 L 325.980469 114.601562 L 308.871094 97.496094 L 190.59375 215.777344 C 185.898438 220.46875 178.289062 220.46875 173.597656 215.777344 L 129.71875 171.898438 L 112.613281 189.007812 Z M 112.609375 189.007812 " fill-opacity="1" fill-rule="nonzero"/></svg>