<svg xmlns="http://www.w3.org/2000/svg" xmlns:xlink="http://www.w3.org/1999/xlink" width="500" zoomAndPan="magnify" viewBox="0 0 375 374.999991" height="500" preserveAspectRatio="xMidYMid meet" version="1.0"><defs><clipPath id="e34262d431"><path d="M 11.210938 49.296875 L 363.710938 49.296875 L 363.710938 352.023438 L 11.210938 352.023438 Z M 11.210938 49.296875 " clip-rule="nonzero"/></clipPath><clipPath id="eb0e33e1b3"><path d="M 268 22.980469 L 290 22.980469 L 290 88 L 268 88 Z M 268 22.980469 " clip-rule="nonzero"/></clipPath></defs><path fill="#ffffff" d="M 114.4375 61.359375 L 258.433594 61.359375 C 259.761719 61.359375 260.84375 60.285156 260.84375 58.953125 L 260.84375 51.730469 C 260.84375 50.402344 259.761719 49.320312 258.433594 49.320312 L 114.4375 49.320312 C 113.109375 49.320312 112.03125 50.402344 112.03125 51.730469 L 112.03125 58.953125 C 112.03125 60.285156 113.109375 61.359375 114.4375 61.359375 " fill-opacity="1" fill-rule="nonzero"/><g clip-path="url(#e34262d431)"><path fill="#ffffff" d="M 326.292969 339.984375 L 48.703125 339.984375 C 34.648438 339.984375 23.25 328.589844 23.25 314.53125 L 23.25 145.109375 L 351.742188 145.109375 L 351.742188 314.53125 C 351.742188 328.589844 340.347656 339.984375 326.292969 339.984375 Z M 326.292969 49.320312 L 299.367188 49.320312 C 298.039062 49.320312 296.960938 50.398438 296.960938 51.730469 L 296.960938 58.953125 C 296.960938 60.28125 298.039062 61.363281 299.367188 61.363281 L 326.292969 61.363281 C 340.328125 61.363281 351.742188 72.773438 351.742188 86.835938 L 351.742188 133.070312 L 23.25 133.070312 L 23.25 86.835938 C 23.25 72.773438 34.664062 61.363281 48.703125 61.363281 L 73.503906 61.363281 C 74.835938 61.363281 75.914062 60.28125 75.914062 58.953125 L 75.914062 51.730469 C 75.914062 50.398438 74.835938 49.320312 73.503906 49.320312 L 48.703125 49.320312 C 28.042969 49.320312 11.210938 66.152344 11.210938 86.835938 L 11.210938 314.53125 C 11.210938 335.152344 28.082031 352.023438 48.703125 352.023438 L 326.292969 352.023438 C 346.910156 352.023438 363.78125 335.152344 363.78125 314.53125 L 363.78125 86.835938 C 363.78125 66.152344 346.949219 49.320312 326.292969 49.320312 " fill-opacity="1" fill-rule="nonzero"/></g><path fill="#ffffff" d="M 93.972656 90.667969 C 99.945312 90.667969 104.808594 85.824219 104.808594 79.832031 L 104.808594 36.800781 C 104.808594 30.804688 99.945312 25.964844 93.972656 25.964844 C 87.976562 25.964844 83.136719 30.804688 83.136719 36.800781 L 83.136719 79.832031 C 83.136719 85.824219 87.976562 90.667969 93.972656 90.667969 " fill-opacity="1" fill-rule="nonzero"/><g clip-path="url(#eb0e33e1b3)"><path fill="#ffffff" d="M 278.902344 87.703125 C 284.875 87.703125 289.738281 82.839844 289.738281 76.867188 L 289.738281 33.8125 C 289.738281 27.84375 284.875 22.980469 278.902344 22.980469 C 272.90625 22.980469 268.066406 27.84375 268.066406 33.8125 L 268.066406 76.867188 C 268.066406 82.839844 272.90625 87.703125 278.902344 87.703125 " fill-opacity="1" fill-rule="nonzero"/></g></svg>