<svg xmlns="http://www.w3.org/2000/svg" xmlns:xlink="http://www.w3.org/1999/xlink" width="500" zoomAndPan="magnify" viewBox="0 0 375 374.999991" height="500" preserveAspectRatio="xMidYMid meet" version="1.0"><path fill="#ffffff" d="M 350.789062 152.488281 L 317.984375 147.363281 C 315.644531 140.042969 312.714844 132.867188 309.191406 126.125 L 328.667969 99.324219 C 332.914062 93.460938 332.335938 85.40625 327.210938 80.277344 L 296.167969 49.234375 C 291.039062 44.109375 282.984375 43.515625 277.28125 47.777344 L 250.320312 67.398438 C 243.433594 63.730469 236.257812 60.816406 228.9375 58.460938 L 223.8125 25.65625 C 222.785156 18.496094 216.636719 13.226562 209.460938 13.226562 L 165.375 13.226562 C 158.199219 13.226562 152.050781 18.496094 150.878906 25.671875 L 145.898438 58.476562 C 138.578125 60.816406 131.402344 63.75 124.65625 67.417969 L 97.570312 47.777344 C 91.707031 43.53125 83.8125 44.109375 78.683594 49.234375 L 47.640625 80.296875 C 42.515625 85.421875 41.777344 93.476562 46.167969 99.339844 L 65.789062 126.140625 C 62.28125 133.011719 59.351562 140.042969 57.011719 147.363281 L 24.207031 152.492188 C 17.03125 153.515625 11.761719 159.667969 11.761719 166.84375 L 11.761719 211.070312 C 11.761719 218.261719 17.03125 224.414062 24.207031 225.582031 L 57.011719 230.5625 C 59.351562 237.882812 62.28125 245.058594 65.804688 251.804688 L 46.183594 278.601562 C 41.792969 284.464844 42.515625 292.523438 47.640625 297.648438 L 78.683594 328.691406 C 83.8125 333.816406 91.722656 334.554688 97.570312 330.308594 L 124.65625 310.6875 C 131.402344 314.195312 138.578125 317.125 145.898438 319.480469 L 150.878906 352.253906 C 152.050781 359.429688 158.199219 364.703125 165.375 364.703125 L 209.460938 364.703125 C 216.636719 364.703125 222.785156 359.429688 223.8125 352.253906 L 228.9375 319.449219 C 236.257812 317.109375 243.433594 314.179688 250.320312 310.65625 L 277.265625 330.132812 C 282.984375 334.523438 291.023438 333.800781 296.152344 328.675781 L 327.195312 297.632812 C 332.320312 292.507812 332.914062 284.449219 328.652344 278.746094 L 309.171875 251.804688 C 312.683594 245.058594 315.613281 237.882812 317.96875 230.5625 L 350.789062 225.582031 C 357.964844 224.414062 363.234375 218.261719 363.234375 211.085938 L 363.234375 166.859375 C 363.234375 159.667969 357.964844 153.515625 350.789062 152.488281 Z M 187.5 275.957031 C 139.460938 275.957031 100.503906 237 100.503906 188.960938 C 100.503906 140.921875 139.460938 101.964844 187.5 101.964844 C 235.539062 101.964844 274.496094 140.921875 274.496094 188.960938 C 274.496094 237 235.539062 275.957031 187.5 275.957031 Z M 187.5 275.957031 " fill-opacity="1" fill-rule="nonzero"/><path fill="#ffffff" d="M 218.347656 240.945312 L 156.644531 240.945312 C 141.410156 240.945312 131.351562 224.253906 139.296875 211.28125 C 146.984375 198.832031 159.289062 189.558594 173.863281 185.988281 C 166.191406 181.484375 161.019531 173.011719 161.019531 163.480469 C 161.019531 148.777344 172.9375 137.003906 187.496094 137.003906 C 202.058594 137.003906 213.976562 148.792969 213.976562 163.480469 C 213.976562 173.011719 208.816406 181.484375 201.128906 185.988281 C 215.6875 189.558594 228.007812 198.832031 235.695312 211.28125 C 243.640625 224.253906 233.582031 240.945312 218.347656 240.945312 Z M 218.347656 240.945312 " fill-opacity="1" fill-rule="nonzero"/></svg>