<svg xmlns="http://www.w3.org/2000/svg" xmlns:xlink="http://www.w3.org/1999/xlink" width="500" zoomAndPan="magnify" viewBox="0 0 375 374.999991" height="500" preserveAspectRatio="xMidYMid meet" version="1.0"><path fill="#ffffff" d="M 50.257812 134.617188 C 42.863281 134.617188 36.871094 140.617188 36.871094 148.007812 L 36.871094 228.335938 C 36.871094 235.730469 42.863281 241.722656 50.257812 241.722656 C 57.65625 241.722656 63.648438 235.730469 63.648438 228.335938 L 63.648438 148.007812 C 63.648438 140.621094 57.65625 134.617188 50.257812 134.617188 Z M 94.886719 76.605469 C 87.492188 76.605469 81.5 82.597656 81.5 89.992188 L 81.5 286.351562 C 81.5 293.746094 87.492188 299.738281 94.886719 299.738281 C 102.285156 299.738281 108.277344 293.746094 108.277344 286.351562 L 108.277344 89.992188 C 108.273438 82.601562 102.28125 76.605469 94.886719 76.605469 Z M 139.515625 31.976562 C 132.121094 31.976562 126.125 37.972656 126.125 45.367188 L 126.125 330.980469 C 126.125 338.375 132.121094 344.363281 139.515625 344.363281 C 146.910156 344.363281 152.902344 338.375 152.902344 330.980469 L 152.902344 45.367188 C 152.898438 37.972656 146.910156 31.976562 139.515625 31.976562 Z M 184.140625 110.078125 C 176.746094 110.078125 170.75 116.074219 170.75 123.464844 L 170.75 252.882812 C 170.75 260.277344 176.746094 266.269531 184.140625 266.269531 C 191.53125 266.269531 197.527344 260.277344 197.527344 252.882812 L 197.527344 123.464844 C 197.527344 116.074219 191.53125 110.078125 184.140625 110.078125 Z M 228.765625 31.976562 C 221.375 31.976562 215.378906 37.972656 215.378906 45.367188 L 215.378906 330.980469 C 215.378906 338.375 221.375 344.363281 228.765625 344.363281 C 236.15625 344.363281 242.148438 338.375 242.148438 330.980469 L 242.148438 45.367188 C 242.152344 37.972656 236.15625 31.976562 228.765625 31.976562 Z M 273.394531 98.917969 C 266.003906 98.917969 260.007812 104.914062 260.007812 112.308594 L 260.007812 264.035156 C 260.007812 271.433594 266.003906 277.429688 273.394531 277.429688 C 280.78125 277.429688 286.78125 271.433594 286.78125 264.035156 L 286.78125 112.308594 C 286.78125 104.914062 280.78125 98.917969 273.394531 98.917969 Z M 318.019531 136.851562 C 310.628906 136.851562 304.632812 142.847656 304.632812 150.238281 L 304.632812 226.105469 C 304.632812 233.5 310.628906 239.492188 318.019531 239.492188 C 325.410156 239.492188 331.40625 233.5 331.40625 226.101562 L 331.40625 150.238281 C 331.40625 142.847656 325.410156 136.851562 318.019531 136.851562 Z M 318.019531 136.851562 " fill-opacity="1" fill-rule="nonzero"/></svg>